<?xml version="1.0" standalone="no"?>
<!DOCTYPE svg PUBLIC "-//W3C//DTD SVG 20010904//EN"
 "http://www.w3.org/TR/2001/REC-SVG-20010904/DTD/svg10.dtd">
<svg version="1.0" xmlns="http://www.w3.org/2000/svg"
 width="512.000000pt" height="512.000000pt" viewBox="0 0 512.000000 512.000000"
 preserveAspectRatio="xMidYMid meet">

<g transform="translate(0.000000,512.000000) scale(0.100000,-0.100000)"
fill="currentColor" stroke="none">
<path d="M1609 4630 l-30 -30 3 -166 3 -166 28 -24 c50 -43 125 -27 156 33 18
35 15 297 -4 333 -31 60 -107 69 -156 20z"/>
<path d="M3040 4561 c-60 -8 -147 -35 -195 -59 -16 -8 -210 -132 -430 -276
l-399 -261 -101 3 c-172 5 -290 -42 -410 -163 -122 -122 -171 -248 -162 -415
6 -111 31 -191 85 -272 20 -31 194 -220 387 -419 397 -412 399 -413 535 -414
124 0 155 21 376 250 l187 195 446 0 c245 0 500 5 565 10 201 17 363 65 520
155 l79 45 265 0 264 0 34 34 35 35 -3 526 -3 527 -28 24 c-41 35 -99 33 -138
-5 l-29 -29 0 -456 0 -456 -233 0 -234 0 -43 -31 c-66 -48 -216 -117 -305
-139 -130 -34 -315 -41 -915 -38 l-565 3 -47 28 c-83 48 -126 156 -98 242 16
47 63 101 111 126 36 18 63 19 499 19 513 0 519 1 544 62 18 42 10 81 -21 112
-24 24 -32 26 -146 28 l-121 3 -23 59 c-67 166 -213 298 -378 341 -78 20 -217
19 -286 -1 -91 -27 -171 -74 -240 -140 -36 -35 -70 -63 -75 -63 -5 1 -33 27
-62 59 l-52 57 342 223 c189 123 370 235 403 249 78 32 203 34 280 4 28 -11
173 -93 324 -182 151 -90 299 -174 329 -188 65 -29 163 -53 215 -53 53 0 97
43 97 95 0 69 -23 89 -126 111 -92 19 -124 35 -434 219 -300 179 -367 209
-495 218 -38 3 -95 2 -125 -2z m-981 -831 c39 -21 81 -55 109 -87 56 -65 110
-93 180 -93 74 0 109 18 188 97 98 98 143 118 269 118 108 0 146 -13 226 -76
32 -25 99 -114 99 -132 0 -3 -125 -7 -278 -9 l-278 -3 -65 -32 c-260 -129
-317 -459 -113 -660 57 -55 137 -98 202 -109 l41 -6 -107 -115 c-133 -143
-163 -160 -226 -132 -14 7 -179 172 -367 367 -397 413 -394 409 -394 562 0 84
3 101 28 147 48 92 104 143 202 186 30 13 61 16 130 14 80 -3 97 -7 154 -37z"/>
<path d="M951 4326 c-47 -26 -63 -84 -37 -134 25 -48 239 -249 273 -256 66
-15 132 51 117 117 -4 22 -40 66 -118 145 -141 144 -174 162 -235 128z"/>
<path d="M4506 4084 c-60 -61 -17 -164 70 -164 69 0 110 55 92 125 -18 67
-111 89 -162 39z"/>
<path d="M707 3555 c-49 -49 -37 -127 23 -157 46 -23 272 -26 325 -4 70 30 86
115 30 164 -25 21 -34 22 -189 22 -161 0 -164 0 -189 -25z"/>
<path d="M1281 2275 c-30 -9 -138 -43 -240 -77 l-186 -62 -398 -6 -399 -5 -29
-33 -29 -32 0 -533 c0 -476 2 -535 16 -556 34 -48 57 -51 443 -51 l359 0 441
-205 c242 -112 471 -214 508 -226 48 -15 103 -23 189 -26 136 -6 237 13 350
66 33 16 294 168 580 338 285 171 563 336 617 368 54 32 121 78 148 102 89 81
135 215 117 345 -34 256 -313 409 -544 299 -33 -15 -199 -110 -371 -209 -171
-100 -316 -182 -321 -182 -5 0 -12 17 -16 38 -10 67 -63 157 -125 214 -50 46
-103 75 -415 223 -197 94 -386 181 -420 194 -79 30 -200 37 -275 16z m181
-196 c59 -16 770 -357 796 -382 99 -92 82 -261 -33 -332 -40 -25 -59 -30 -109
-30 -57 0 -76 7 -290 109 -258 124 -281 129 -328 77 -35 -39 -37 -89 -5 -125
25 -29 444 -231 522 -252 65 -18 127 -17 198 1 84 22 133 50 199 115 48 47
136 103 481 303 232 135 438 248 458 252 87 16 195 -54 219 -144 16 -59 -1
-128 -43 -174 -37 -41 -1259 -771 -1352 -808 -52 -20 -77 -23 -190 -23 -157 0
-107 -19 -690 253 l-430 201 -332 0 -333 0 0 405 0 405 328 0 c317 0 330 1
402 24 41 13 149 47 240 76 91 28 170 53 175 55 21 7 82 4 117 -6z"/>
</g>
</svg>
