<?xml version="1.0" encoding="UTF-8"?>
<!DOCTYPE svg PUBLIC "-//W3C//DTD SVG 1.1//EN" "http://www.w3.org/Graphics/SVG/1.1/DTD/svg11.dtd">
<svg xmlns="http://www.w3.org/2000/svg" version="1.1" style="shape-rendering:geometricPrecision; text-rendering:geometricPrecision; image-rendering:optimizeQuality; fill-rule:evenodd; clip-rule:evenodd" xmlns:xlink="http://www.w3.org/1999/xlink">
<g><path style="opacity:1" fill="#d9a8ba" d="M 98.5,0.5 C 98.5,0.166667 98.5,-0.166667 98.5,-0.5C 99.1667,-0.5 99.8333,-0.5 100.5,-0.5C 100.795,1.73535 100.461,3.73535 99.5,5.5C 99.7845,3.58533 99.4511,1.91866 98.5,0.5 Z"/></g>
<g><path style="opacity:1" fill="#997987" d="M 147.5,10.5 C 147.672,9.50838 147.338,8.84171 146.5,8.5C 147.122,7.37344 147.955,6.37344 149,5.5C 149.599,7.53483 149.099,9.2015 147.5,10.5 Z"/></g>
<g><path style="opacity:1" fill="#8f4968" d="M 98.5,0.5 C 98.2914,1.92167 97.7914,3.25501 97,4.5C 91.6028,9.72862 86.4361,15.062 81.5,20.5C 84.3801,15.2783 88.0467,10.6117 92.5,6.5C 94.8606,4.80612 96.8606,2.80612 98.5,0.5 Z"/></g>
<g><path style="opacity:1" fill="#fefdfd" d="M 92.5,6.5 C 88.0467,10.6117 84.3801,15.2783 81.5,20.5C 77.8519,25.4899 76.6853,31.1566 78,37.5C 78.2784,38.4158 78.7784,39.0825 79.5,39.5C 80.4792,43.4605 82.4792,46.7939 85.5,49.5C 85.4148,50.9953 86.0815,51.9953 87.5,52.5C 89.8815,49.4517 92.5482,46.7851 95.5,44.5C 98.7378,44.2184 100.738,42.5517 101.5,39.5C 100.685,34.8677 100.352,30.201 100.5,25.5C 100.5,24.5 100.5,23.5 100.5,22.5C 116.271,19.0604 131.605,14.3937 146.5,8.5C 144.527,9.806 142.861,11.4727 141.5,13.5C 133.052,18.7803 126.052,25.6136 120.5,34C 120.645,34.772 120.978,35.4387 121.5,36C 127.664,39.3555 133.664,42.8555 139.5,46.5C 142.094,50.272 144.927,53.9387 148,57.5C 150.454,62.0728 152.621,66.7395 154.5,71.5C 153.167,71.8333 153.167,72.1667 154.5,72.5C 155.01,75.5394 155.677,78.5394 156.5,81.5C 156.5,82.1667 156.833,82.5 157.5,82.5C 160.445,88.266 165.112,92.0993 171.5,94C 170.263,94.2321 169.263,94.7321 168.5,95.5C 166.473,95.3379 164.473,95.5045 162.5,96C 161.084,97.9151 161.418,99.4151 163.5,100.5C 163.5,100.833 163.5,101.167 163.5,101.5C 165.167,103.833 167.167,105.833 169.5,107.5C 170.511,109.402 170.678,111.402 170,113.5C 168.668,115.66 167.168,117.66 165.5,119.5C 163.597,119.796 161.93,120.463 160.5,121.5C 152.586,122.13 145.253,124.463 138.5,128.5C 132.799,129.675 127.133,131.008 121.5,132.5C 110.88,134.556 100.213,134.89 89.5,133.5C 86.5,132.833 83.5,132.167 80.5,131.5C 77.2054,129.853 73.8721,128.186 70.5,126.5C 66.8955,123.398 63.3955,120.065 60,116.5C 62.1315,120.817 65.2981,124.484 69.5,127.5C 71.8838,129.885 74.5505,131.885 77.5,133.5C 81.5067,137.174 86.1734,139.841 91.5,141.5C 94.39,143.733 97.7233,145.066 101.5,145.5C 110.101,148.653 119.101,149.987 128.5,149.5C 128.833,149.5 129.167,149.5 129.5,149.5C 135.168,156.673 140.668,164.007 146,171.5C 147.75,173.424 149.583,175.091 151.5,176.5C 151.5,176.833 151.5,177.167 151.5,177.5C 150.556,180.935 149.223,184.268 147.5,187.5C 147.863,188.183 148.196,188.85 148.5,189.5C 148.167,191.5 147.833,193.5 147.5,195.5C 145.723,198.505 144.723,201.838 144.5,205.5C 143.609,206.261 142.942,207.261 142.5,208.5C 146.546,209.394 147.213,211.227 144.5,214C 145.337,215.011 145.67,216.178 145.5,217.5C 146.552,217.649 147.552,217.483 148.5,217C 149.878,215.287 151.545,213.953 153.5,213C 152.587,211.586 152.587,210.086 153.5,208.5C 157.527,203.806 161.86,199.473 166.5,195.5C 166.833,195.5 167.167,195.5 167.5,195.5C 178.45,187.389 190.45,185.389 203.5,189.5C 211.356,194.352 217.023,201.019 220.5,209.5C 228.393,240.021 220.059,265.021 195.5,284.5C 190.528,287.656 185.528,290.823 180.5,294C 185.896,292.135 191.229,289.968 196.5,287.5C 199.423,285.899 202.09,286.232 204.5,288.5C 202.929,290.415 200.929,291.415 198.5,291.5C 198.5,292.833 198.5,294.167 198.5,295.5C 197.5,295.833 196.833,296.5 196.5,297.5C 191.398,300.755 186.398,304.255 181.5,308C 177.901,310.952 174.567,314.118 171.5,317.5C 164.669,322.656 159.336,328.99 155.5,336.5C 150.891,341.379 147.558,347.046 145.5,353.5C 142.103,360 140.103,367 139.5,374.5C 139.167,374.5 138.833,374.5 138.5,374.5C 138.525,368.297 137.525,362.297 135.5,356.5C 134.258,352.345 132.258,348.678 129.5,345.5C 129.167,344.5 128.5,343.833 127.5,343.5C 124.564,338.895 120.898,334.895 116.5,331.5C 112.167,328.167 107.833,324.833 103.5,321.5C 90.1667,311.833 76.8333,302.167 63.5,292.5C 53.2934,282.379 44.2934,271.379 36.5,259.5C 32.0392,250.577 28.7059,241.243 26.5,231.5C 25.0346,220.167 24.3679,208.667 24.5,197C 24.431,184.114 25.0977,171.281 26.5,158.5C 26.5,158.167 26.5,157.833 26.5,157.5C 27.8596,153.957 29.5263,150.457 31.5,147C 30.5257,142.564 30.5257,138.064 31.5,133.5C 32.8333,126.833 34.1667,120.167 35.5,113.5C 36.1174,113.389 36.6174,113.056 37,112.5C 38.3743,107.069 39.7076,101.736 41,96.5C 38.0651,99.3789 35.8985,102.712 34.5,106.5C 29.3436,114.136 24.677,122.136 20.5,130.5C 19.4138,130.38 18.7472,129.713 18.5,128.5C 19.602,123.889 20.2686,119.222 20.5,114.5C 20.916,111.417 21.5826,108.417 22.5,105.5C 23.6611,102.898 24.8277,100.231 26,97.5C 27.8733,89.9618 29.04,82.2951 29.5,74.5C 33.2656,69.2037 35.2656,63.2037 35.5,56.5C 37.109,50.6153 39.7757,45.2819 43.5,40.5C 48.6364,34.5314 54.303,29.0314 60.5,24C 71.2467,18.2116 81.7467,12.0449 92,5.5C 92.3988,5.72845 92.5654,6.06178 92.5,6.5 Z"/></g>
<g><path style="opacity:1" fill="#aa3e69" d="M 98.5,0.5 C 99.4511,1.91866 99.7845,3.58533 99.5,5.5C 99.2143,11.2586 99.5476,16.9252 100.5,22.5C 100.167,22.5 99.8333,22.5 99.5,22.5C 99.1667,22.5 98.8333,22.5 98.5,22.5C 98.8282,17.1254 98.4948,11.7921 97.5,6.5C 96.0295,7.38054 95.1962,8.71387 95,10.5C 88.781,16.3675 83.781,23.0342 80,30.5C 79.502,33.4816 79.3354,36.4816 79.5,39.5C 78.7784,39.0825 78.2784,38.4158 78,37.5C 76.6853,31.1566 77.8519,25.4899 81.5,20.5C 86.4361,15.062 91.6028,9.72862 97,4.5C 97.7914,3.25501 98.2914,1.92167 98.5,0.5 Z"/></g>
<g><path style="opacity:1" fill="#d64574" d="M 95.5,28.5 C 95.5,29.5 95.5,30.5 95.5,31.5C 93.9601,35.8005 92.2935,40.1338 90.5,44.5C 88.6675,45.2485 87.0009,46.2485 85.5,47.5C 84.4756,46.1482 83.4756,44.8149 82.5,43.5C 83.8474,44.0283 85.1807,44.195 86.5,44C 87.63,41.5719 89.13,39.4053 91,37.5C 92.8907,30.7688 94.3907,23.9355 95.5,17C 95.0261,15.3925 94.3594,15.2258 93.5,16.5C 91.6314,20.2372 89.7981,23.9038 88,27.5C 82.941,31.2065 81.1077,36.2065 82.5,42.5C 81.0069,41.6879 80.3402,40.3545 80.5,38.5C 80.8417,36.1332 81.3417,33.7999 82,31.5C 85.4319,25.6244 89.0986,19.9577 93,14.5C 95.4585,10.6189 96.9585,10.7855 97.5,15C 96.6368,19.4804 95.9701,23.9804 95.5,28.5 Z"/></g>
<g><path style="opacity:1" fill="#ea4979" d="M 82.5,43.5 C 82.5,43.1667 82.5,42.8333 82.5,42.5C 81.1077,36.2065 82.941,31.2065 88,27.5C 89.7981,23.9038 91.6314,20.2372 93.5,16.5C 94.3594,15.2258 95.0261,15.3925 95.5,17C 94.3907,23.9355 92.8907,30.7688 91,37.5C 89.13,39.4053 87.63,41.5719 86.5,44C 85.1807,44.195 83.8474,44.0283 82.5,43.5 Z"/></g>
<g><path style="opacity:1" fill="#76325a" d="M 146.5,8.5 C 147.338,8.84171 147.672,9.50838 147.5,10.5C 145.789,18.0192 143.789,25.3525 141.5,32.5C 141.483,30.9719 140.816,30.4719 139.5,31C 137.945,32.5827 136.778,34.416 136,36.5C 135.044,37.8941 133.711,38.5607 132,38.5C 129.778,36.8057 127.278,35.8057 124.5,35.5C 124.351,34.448 124.517,33.448 125,32.5C 126.512,31.7433 127.846,30.7433 129,29.5C 133.305,24.2671 137.471,18.9338 141.5,13.5C 142.861,11.4727 144.527,9.806 146.5,8.5 Z"/></g>
<g><path style="opacity:1" fill="#5f3758" d="M 141.5,13.5 C 137.471,18.9338 133.305,24.2671 129,29.5C 127.846,30.7433 126.512,31.7433 125,32.5C 124.517,33.448 124.351,34.448 124.5,35.5C 127.278,35.8057 129.778,36.8057 132,38.5C 133.711,38.5607 135.044,37.8941 136,36.5C 136.778,34.416 137.945,32.5827 139.5,31C 140.816,30.4719 141.483,30.9719 141.5,32.5C 141.295,37.2715 140.628,41.9382 139.5,46.5C 133.664,42.8555 127.664,39.3555 121.5,36C 120.978,35.4387 120.645,34.772 120.5,34C 126.052,25.6136 133.052,18.7803 141.5,13.5 Z"/></g>
<g><path style="opacity:1" fill="#c2406f" d="M 98.5,22.5 C 98.5,23.1667 98.5,23.8333 98.5,24.5C 97.0221,25.4475 96.0221,26.7809 95.5,28.5C 95.9701,23.9804 96.6368,19.4804 97.5,15C 96.9585,10.7855 95.4585,10.6189 93,14.5C 89.0986,19.9577 85.4319,25.6244 82,31.5C 81.3417,33.7999 80.8417,36.1332 80.5,38.5C 80.3402,40.3545 81.0069,41.6879 82.5,42.5C 82.5,42.8333 82.5,43.1667 82.5,43.5C 83.4756,44.8149 84.4756,46.1482 85.5,47.5C 87.0009,46.2485 88.6675,45.2485 90.5,44.5C 92.2935,40.1338 93.9601,35.8005 95.5,31.5C 95.0914,36.4732 93.7581,41.1399 91.5,45.5C 89.736,47.2776 87.736,48.6109 85.5,49.5C 82.4792,46.7939 80.4792,43.4605 79.5,39.5C 79.3354,36.4816 79.502,33.4816 80,30.5C 83.781,23.0342 88.781,16.3675 95,10.5C 95.1962,8.71387 96.0295,7.38054 97.5,6.5C 98.4948,11.7921 98.8282,17.1254 98.5,22.5 Z"/></g>
<g><path style="opacity:1" fill="#693659" d="M 98.5,22.5 C 98.8333,22.5 99.1667,22.5 99.5,22.5C 99.2627,23.791 99.596,24.791 100.5,25.5C 100.352,30.201 100.685,34.8677 101.5,39.5C 100.738,42.5517 98.7378,44.2184 95.5,44.5C 97.0981,37.9513 98.0981,31.2846 98.5,24.5C 98.5,23.8333 98.5,23.1667 98.5,22.5 Z"/></g>
<g><path style="opacity:1" fill="#923d64" d="M 98.5,24.5 C 98.0981,31.2846 97.0981,37.9513 95.5,44.5C 92.5482,46.7851 89.8815,49.4517 87.5,52.5C 86.0815,51.9953 85.4148,50.9953 85.5,49.5C 87.736,48.6109 89.736,47.2776 91.5,45.5C 93.7581,41.1399 95.0914,36.4732 95.5,31.5C 95.5,30.5 95.5,29.5 95.5,28.5C 96.0221,26.7809 97.0221,25.4475 98.5,24.5 Z"/></g>
<g><path style="opacity:1" fill="#bb7189" d="M 43.5,40.5 C 39.7757,45.2819 37.109,50.6153 35.5,56.5C 35.1667,56.5 34.8333,56.5 34.5,56.5C 34.8693,54.0065 34.2027,53.3398 32.5,54.5C 34.9954,48.8589 38.4954,43.8589 43,39.5C 43.3988,39.7284 43.5654,40.0618 43.5,40.5 Z"/></g>
<g><path style="opacity:1" fill="#fae0ec" d="M 34.5,56.5 C 34.8333,56.5 35.1667,56.5 35.5,56.5C 35.2656,63.2037 33.2656,69.2037 29.5,74.5C 30.7582,68.3914 32.4248,62.3914 34.5,56.5 Z"/></g>
<g><path style="opacity:1" fill="#bd5074" d="M 34.5,56.5 C 32.4248,62.3914 30.7582,68.3914 29.5,74.5C 27.5,82.1667 25.5,89.8333 23.5,97.5C 24.2657,92.1798 24.4324,86.8465 24,81.5C 20.4907,90.2438 18.9907,99.2438 19.5,108.5C 20.3249,106.64 21.3249,104.974 22.5,103.5C 22.5,104.167 22.5,104.833 22.5,105.5C 21.5826,108.417 20.916,111.417 20.5,114.5C 19.4763,118.591 18.1429,122.591 16.5,126.5C 16.1886,121.777 16.8553,117.277 18.5,113C 18.1667,111.833 17.8333,110.667 17.5,109.5C 16.7568,110.908 15.9234,112.241 15,113.5C 14.7644,119.433 13.9311,125.266 12.5,131C 12.6667,132.167 12.8333,133.333 13,134.5C 13.7568,132.685 14.5902,131.019 15.5,129.5C 14.4626,136.029 12.796,142.362 10.5,148.5C 9.56552,147.432 9.23219,146.099 9.5,144.5C 11.2727,118.47 16.4393,93.1366 25,68.5C 27.2742,63.6126 29.7742,58.9459 32.5,54.5C 34.2027,53.3398 34.8693,54.0065 34.5,56.5 Z"/></g>
<g><path style="opacity:1" fill="#8c587a" d="M 121.5,73.5 C 121.082,74.2216 120.416,74.7216 119.5,75C 120.571,75.8518 121.571,76.6851 122.5,77.5C 101.071,74.446 100.738,73.1126 121.5,73.5 Z"/></g>
<g><path style="opacity:1" fill="#603859" d="M 121.5,73.5 C 129.663,72.164 135.497,75.164 139,82.5C 139.667,83.8333 139.667,85.1667 139,86.5C 134.934,81.0472 129.434,78.0472 122.5,77.5C 121.571,76.6851 120.571,75.8518 119.5,75C 120.416,74.7216 121.082,74.2216 121.5,73.5 Z"/></g>
<g><path style="opacity:1" fill="#644667" d="M 154.5,71.5 C 155.683,72.5045 157.016,73.3378 158.5,74C 157.944,74.3826 157.611,74.8826 157.5,75.5C 157.795,77.7354 157.461,79.7354 156.5,81.5C 155.677,78.5394 155.01,75.5394 154.5,72.5C 154.5,72.1667 154.5,71.8333 154.5,71.5 Z"/></g>
<g><path style="opacity:1" fill="#a58aa3" d="M 157.5,75.5 C 158.376,75.3691 159.043,75.7025 159.5,76.5C 158.95,78.6568 158.283,80.6568 157.5,82.5C 156.833,82.5 156.5,82.1667 156.5,81.5C 157.461,79.7354 157.795,77.7354 157.5,75.5 Z"/></g>
<g><path style="opacity:1" fill="#c93f6f" d="M 23.5,97.5 C 23.4828,99.5648 23.1495,101.565 22.5,103.5C 21.3249,104.974 20.3249,106.64 19.5,108.5C 18.9907,99.2438 20.4907,90.2438 24,81.5C 24.4324,86.8465 24.2657,92.1798 23.5,97.5 Z"/></g>
<g><path style="opacity:1" fill="#fce3ef" d="M 29.5,74.5 C 29.04,82.2951 27.8733,89.9618 26,97.5C 24.8277,100.231 23.6611,102.898 22.5,105.5C 22.5,104.833 22.5,104.167 22.5,103.5C 23.1495,101.565 23.4828,99.5648 23.5,97.5C 25.5,89.8333 27.5,82.1667 29.5,74.5 Z"/></g>
<g><path style="opacity:1" fill="#e64b7b" d="M 175.5,99.5 C 173.118,100.443 170.951,101.777 169,103.5C 167.2,102.68 165.366,102.014 163.5,101.5C 163.5,101.167 163.5,100.833 163.5,100.5C 163.33,99.1779 163.663,98.0113 164.5,97C 168.152,96.5014 171.818,96.3347 175.5,96.5C 175.5,97.5 175.5,98.5 175.5,99.5 Z"/></g>
<g><path style="opacity:1" fill="#d97b96" d="M 168.5,95.5 C 171.898,95.1796 175.232,95.513 178.5,96.5C 178.043,98.5976 177.043,100.264 175.5,101.5C 175.5,100.833 175.5,100.167 175.5,99.5C 175.5,98.5 175.5,97.5 175.5,96.5C 171.818,96.3347 168.152,96.5014 164.5,97C 163.663,98.0113 163.33,99.1779 163.5,100.5C 161.418,99.4151 161.084,97.9151 162.5,96C 164.473,95.5045 166.473,95.3379 168.5,95.5 Z"/></g>
<g><path style="opacity:1" fill="#ba5777" d="M 35.5,113.5 C 35.4332,111.599 35.7665,109.766 36.5,108C 36.1639,106.97 35.4972,106.47 34.5,106.5C 35.8985,102.712 38.0651,99.3789 41,96.5C 39.7076,101.736 38.3743,107.069 37,112.5C 36.6174,113.056 36.1174,113.389 35.5,113.5 Z"/></g>
<g><path style="opacity:1" fill="#b6426d" d="M 175.5,99.5 C 175.5,100.167 175.5,100.833 175.5,101.5C 174.761,101.369 174.094,101.536 173.5,102C 172.279,104.034 170.945,105.867 169.5,107.5C 167.167,105.833 165.167,103.833 163.5,101.5C 165.366,102.014 167.2,102.68 169,103.5C 170.951,101.777 173.118,100.443 175.5,99.5 Z"/></g>
<g><path style="opacity:0.106" fill="#f2edee" d="M 177.5,104.5 C 178.833,105.167 178.833,105.167 177.5,104.5 Z"/></g>
<g><path style="opacity:1" fill="#824968" d="M 175.5,101.5 C 176.233,106.661 176.233,110.994 175.5,114.5C 175.167,114.5 174.833,114.5 174.5,114.5C 174.167,113.167 173.833,113.167 173.5,114.5C 173.167,115.167 172.833,115.833 172.5,116.5C 172.5,117.167 172.5,117.833 172.5,118.5C 171.833,118.5 171.5,118.833 171.5,119.5C 171.5,119.833 171.5,120.167 171.5,120.5C 169.992,122.181 168.992,124.181 168.5,126.5C 167.167,127.5 165.833,128.5 164.5,129.5C 163.96,126.313 164.96,123.813 167.5,122C 166.944,120.989 166.278,120.156 165.5,119.5C 167.168,117.66 168.668,115.66 170,113.5C 170.678,111.402 170.511,109.402 169.5,107.5C 170.945,105.867 172.279,104.034 173.5,102C 174.094,101.536 174.761,101.369 175.5,101.5 Z"/></g>
<g><path style="opacity:0.297" fill="#efd5e3" d="M 173.5,114.5 C 173.833,114.5 174.167,114.5 174.5,114.5C 174.869,116.993 174.203,117.66 172.5,116.5C 172.833,115.833 173.167,115.167 173.5,114.5 Z"/></g>
<g><path style="opacity:0.008" fill="#f2e8ed" d="M 175.5,114.5 C 176.525,114.897 176.692,115.563 176,116.5C 175.536,115.906 175.369,115.239 175.5,114.5 Z"/></g>
<g><path style="opacity:1" fill="#ba4971" d="M 34.5,106.5 C 35.4972,106.47 36.1639,106.97 36.5,108C 35.7665,109.766 35.4332,111.599 35.5,113.5C 34.1667,120.167 32.8333,126.833 31.5,133.5C 29.6491,140.128 27.9825,146.795 26.5,153.5C 26.1374,147.706 26.8041,142.039 28.5,136.5C 28.2104,134.956 27.5437,133.623 26.5,132.5C 27.3652,132.436 28.3652,132.103 29.5,131.5C 30.4431,128.25 31.4431,125.084 32.5,122C 32.3333,120.833 32.1667,119.667 32,118.5C 30.9887,119.337 29.8221,119.67 28.5,119.5C 28.5191,121.06 28.8524,122.56 29.5,124C 28.5765,125.811 27.7431,125.645 27,123.5C 23.592,128.983 20.7587,134.649 18.5,140.5C 17.7777,141.551 16.7777,142.218 15.5,142.5C 17.1693,138.496 18.8359,134.496 20.5,130.5C 24.677,122.136 29.3436,114.136 34.5,106.5 Z"/></g>
<g><path style="opacity:0.486" fill="#f1dce5" d="M 171.5,119.5 C 171.5,118.833 171.833,118.5 172.5,118.5C 173.833,119.167 173.833,119.833 172.5,120.5C 172.5,119.833 172.167,119.5 171.5,119.5 Z"/></g>
<g><path style="opacity:1" fill="#ca436e" d="M 16.5,126.5 C 16.7373,127.791 16.404,128.791 15.5,129.5C 14.5902,131.019 13.7568,132.685 13,134.5C 12.8333,133.333 12.6667,132.167 12.5,131C 13.9311,125.266 14.7644,119.433 15,113.5C 15.9234,112.241 16.7568,110.908 17.5,109.5C 17.8333,110.667 18.1667,111.833 18.5,113C 16.8553,117.277 16.1886,121.777 16.5,126.5 Z"/></g>
<g><path style="opacity:1" fill="#8c7385" d="M 70.5,126.5 C 69.8333,126.5 69.5,126.833 69.5,127.5C 65.2981,124.484 62.1315,120.817 60,116.5C 63.3955,120.065 66.8955,123.398 70.5,126.5 Z"/></g>
<g><path style="opacity:0.392" fill="#f0dce9" d="M 171.5,120.5 C 171.833,120.5 172.167,120.5 172.5,120.5C 172.071,123.147 170.738,125.147 168.5,126.5C 168.992,124.181 169.992,122.181 171.5,120.5 Z"/></g>
<g><path style="opacity:0.008" fill="#f2eeea" d="M 234.5,125.5 C 235.833,126.167 235.833,126.167 234.5,125.5 Z"/></g>
<g><path style="opacity:0.008" fill="#f2eee9" d="M 170.5,126.5 C 171.833,127.167 171.833,127.167 170.5,126.5 Z"/></g>
<g><path style="opacity:0.776" fill="#f1d5e5" d="M 168.5,126.5 C 168.567,127.959 168.234,129.292 167.5,130.5C 166.833,130.5 166.5,130.833 166.5,131.5C 165.833,131.5 165.5,131.833 165.5,132.5C 164.833,132.5 164.5,132.167 164.5,131.5C 164.5,130.833 164.5,130.167 164.5,129.5C 165.833,128.5 167.167,127.5 168.5,126.5 Z"/></g>
<g><path style="opacity:1" fill="#a53866" d="M 165.5,119.5 C 166.278,120.156 166.944,120.989 167.5,122C 164.96,123.813 163.96,126.313 164.5,129.5C 159.046,134.427 152.879,138.427 146,141.5C 141.504,144.098 136.671,145.764 131.5,146.5C 135.467,143.149 140.133,140.983 145.5,140C 153.245,136.121 158.912,130.788 162.5,124C 162.164,122.97 161.497,122.47 160.5,122.5C 160.5,122.167 160.5,121.833 160.5,121.5C 161.93,120.463 163.597,119.796 165.5,119.5 Z"/></g>
<g><path style="opacity:1" fill="#7d4465" d="M 69.5,127.5 C 69.5,126.833 69.8333,126.5 70.5,126.5C 73.8721,128.186 77.2054,129.853 80.5,131.5C 78.8212,131.285 77.8212,131.952 77.5,133.5C 74.5505,131.885 71.8838,129.885 69.5,127.5 Z"/></g>
<g><path style="opacity:0.008" fill="#f5eded" d="M 188.5,130.5 C 189.833,131.167 189.833,131.167 188.5,130.5 Z"/></g>
<g><path style="opacity:0.008" fill="#f7eced" d="M 192.5,131.5 C 192.897,130.475 193.563,130.308 194.5,131C 193.906,131.464 193.239,131.631 192.5,131.5 Z"/></g>
<g><path style="opacity:0.008" fill="#f7eced" d="M 198.5,130.5 C 199.833,131.167 199.833,131.167 198.5,130.5 Z"/></g>
<g><path style="opacity:1" fill="#e67491" d="M 236.5,129.5 C 226.789,129.602 217.123,130.269 207.5,131.5C 210.577,130.144 213.91,129.311 217.5,129C 224.014,128.18 230.347,128.347 236.5,129.5 Z"/></g>
<g><path style="opacity:0.153" fill="#f8edf0" d="M 167.5,130.5 C 168.757,131.623 168.424,132.289 166.5,132.5C 166.5,132.167 166.5,131.833 166.5,131.5C 167.167,131.5 167.5,131.167 167.5,130.5 Z"/></g>
<g><path style="opacity:0.008" fill="#f7eeec" d="M 187.5,132.5 C 188.833,133.167 188.833,133.167 187.5,132.5 Z"/></g>
<g><path style="opacity:0.345" fill="#fcedf2" d="M 165.5,132.5 C 165.833,132.5 166.167,132.5 166.5,132.5C 166.5,133.167 166.5,133.833 166.5,134.5C 165.833,134.5 165.167,134.5 164.5,134.5C 164.833,133.833 165.167,133.167 165.5,132.5 Z"/></g>
<g><path style="opacity:0.057" fill="#f4eeee" d="M 170.5,135.5 C 169.475,135.103 169.308,134.437 170,133.5C 170.464,134.094 170.631,134.761 170.5,135.5 Z"/></g>
<g><path style="opacity:0.008" fill="#f4eaee" d="M 170.5,136.5 C 170.5,136.167 170.5,135.833 170.5,135.5C 171.82,134.058 173.486,133.392 175.5,133.5C 175.5,135.5 175.5,137.5 175.5,139.5C 173.473,139.662 171.473,139.495 169.5,139C 171.359,138.399 171.692,137.566 170.5,136.5 Z"/></g>
<g><path style="opacity:0.008" fill="#f8eeeb" d="M 190.5,133.5 C 191.833,134.167 191.833,134.167 190.5,133.5 Z"/></g>
<g><path style="opacity:1" fill="#d57794" d="M 121.5,132.5 C 120.22,133.931 118.553,134.598 116.5,134.5C 112.519,135.021 108.519,135.354 104.5,135.5C 100.154,135.666 95.8206,135.499 91.5,135C 90.5842,134.722 89.9175,134.222 89.5,133.5C 100.213,134.89 110.88,134.556 121.5,132.5 Z"/></g>
<g><path style="opacity:0.153" fill="#f9ebf0" d="M 162.5,133.5 C 163.167,133.833 163.833,134.167 164.5,134.5C 164.158,135.338 163.492,135.672 162.5,135.5C 162.5,134.833 162.5,134.167 162.5,133.5 Z"/></g>
<g><path style="opacity:0.298" fill="#faeff0" d="M 166.5,134.5 C 167.833,135.167 167.833,135.167 166.5,134.5 Z"/></g>
<g><path style="opacity:0.298" fill="#f5f1ec" d="M 187.5,134.5 C 188.833,135.167 188.833,135.167 187.5,134.5 Z"/></g>
<g><path style="opacity:1" fill="#e36b8c" d="M 207.5,131.5 C 205.981,132.41 204.315,133.243 202.5,134C 209.622,134.177 216.622,135.177 223.5,137C 225.993,138.419 228.326,139.919 230.5,141.5C 224.329,139.221 217.996,137.554 211.5,136.5C 207.167,135.833 202.833,135.167 198.5,134.5C 201.084,132.528 204.084,131.528 207.5,131.5 Z"/></g>
<g><path style="opacity:1" fill="#af3e6b" d="M 80.5,131.5 C 83.5,132.167 86.5,132.833 89.5,133.5C 89.9175,134.222 90.5842,134.722 91.5,135C 95.8206,135.499 100.154,135.666 104.5,135.5C 102.052,136.473 99.3854,136.806 96.5,136.5C 94.076,136.192 91.7427,136.526 89.5,137.5C 90.8532,138.524 91.5198,139.857 91.5,141.5C 86.1734,139.841 81.5067,137.174 77.5,133.5C 77.8212,131.952 78.8212,131.285 80.5,131.5 Z"/></g>
<g><path style="opacity:1" fill="#d86587" d="M 236.5,129.5 C 247.174,130.519 255.84,134.519 262.5,141.5C 262.167,141.5 261.833,141.5 261.5,141.5C 257.877,139.066 253.877,137.399 249.5,136.5C 248.395,134.389 246.729,133.055 244.5,132.5C 241.514,132.097 238.848,131.097 236.5,129.5 Z"/></g>
<g><path style="opacity:1" fill="#f14e7d" d="M 116.5,134.5 C 118.553,134.598 120.22,133.931 121.5,132.5C 127.133,131.008 132.799,129.675 138.5,128.5C 143.607,128.016 148.441,126.682 153,124.5C 154.722,124.611 154.888,125.111 153.5,126C 142.494,134.359 130.161,140.192 116.5,143.5C 112.152,143.129 111.318,141.129 114,137.5C 114.333,137.833 114.667,138.167 115,138.5C 115.791,137.255 116.291,135.922 116.5,134.5 Z"/></g>
<g><path style="opacity:0.106" fill="#f4efed" d="M 162.5,136.5 C 163.239,136.369 163.906,136.536 164.5,137C 163.563,137.692 162.897,137.525 162.5,136.5 Z"/></g>
<g><path style="opacity:0.008" fill="#f6eded" d="M 165.5,136.5 C 166.833,137.167 166.833,137.167 165.5,136.5 Z"/></g>
<g><path style="opacity:0.2" fill="#f5edef" d="M 170.5,136.5 C 169.833,137.167 169.833,137.167 170.5,136.5 Z"/></g>
<g><path style="opacity:1" fill="#dc9aac" d="M 198.5,134.5 C 202.833,135.167 207.167,135.833 211.5,136.5C 205.788,136.313 200.121,136.646 194.5,137.5C 193.833,137.5 193.5,137.833 193.5,138.5C 192.833,138.5 192.167,138.5 191.5,138.5C 190.833,138.5 190.5,138.833 190.5,139.5C 189.833,139.5 189.167,139.5 188.5,139.5C 191.235,136.799 194.569,135.132 198.5,134.5 Z"/></g>
<g><path style="opacity:1" fill="#ed4e7d" d="M 236.5,129.5 C 238.848,131.097 241.514,132.097 244.5,132.5C 245.041,136.295 243.375,138.295 239.5,138.5C 241.986,141.035 244.32,140.702 246.5,137.5C 247.308,137.808 247.975,138.308 248.5,139C 246.939,140.86 245.272,142.026 243.5,142.5C 246.571,143.071 247.904,144.904 247.5,148C 247.374,157.833 247.04,167.666 246.5,177.5C 243.962,176.323 241.629,174.656 239.5,172.5C 231.405,168.915 223.405,165.081 215.5,161C 209.781,159.316 204.115,158.65 198.5,159C 197.584,158.626 196.75,158.126 196,157.5C 191.627,158.841 187.294,160.174 183,161.5C 180.41,161.055 177.91,160.389 175.5,159.5C 175.55,161.59 174.55,162.923 172.5,163.5C 171.614,162.675 171.281,161.675 171.5,160.5C 173.5,158.167 175.5,155.833 177.5,153.5C 177.973,152.094 178.973,151.427 180.5,151.5C 181.167,151.5 181.833,151.5 182.5,151.5C 182.389,152.117 182.056,152.617 181.5,153C 184.684,153.825 187.184,155.658 189,158.5C 191.356,155.657 194.189,154.99 197.5,156.5C 200.664,152.652 204.831,150.986 210,151.5C 217.733,152.769 225.066,154.769 232,157.5C 234.228,154.516 235.728,151.182 236.5,147.5C 233.705,147.062 231.372,146.062 229.5,144.5C 231.599,145.231 233.599,145.231 235.5,144.5C 234.312,142.738 232.645,141.738 230.5,141.5C 228.326,139.919 225.993,138.419 223.5,137C 216.622,135.177 209.622,134.177 202.5,134C 204.315,133.243 205.981,132.41 207.5,131.5C 217.123,130.269 226.789,129.602 236.5,129.5 Z"/></g>
<g><path style="opacity:1" fill="#dd4876" d="M 160.5,121.5 C 160.5,121.833 160.5,122.167 160.5,122.5C 160.509,124.308 160.009,125.975 159,127.5C 150.095,133.398 140.929,138.898 131.5,144C 129.5,144.333 127.5,144.667 125.5,145C 124.619,145.708 123.953,146.542 123.5,147.5C 118.453,147.663 113.453,147.329 108.5,146.5C 105.222,145.052 101.889,143.385 98.5,141.5C 99.2458,140.264 99.5792,138.93 99.5,137.5C 98.209,137.737 97.209,137.404 96.5,136.5C 99.3854,136.806 102.052,136.473 104.5,135.5C 108.519,135.354 112.519,135.021 116.5,134.5C 116.291,135.922 115.791,137.255 115,138.5C 114.667,138.167 114.333,137.833 114,137.5C 111.318,141.129 112.152,143.129 116.5,143.5C 130.161,140.192 142.494,134.359 153.5,126C 154.888,125.111 154.722,124.611 153,124.5C 148.441,126.682 143.607,128.016 138.5,128.5C 145.253,124.463 152.586,122.13 160.5,121.5 Z"/></g>
<g><path style="opacity:1" fill="#8d4463" d="M 164.5,129.5 C 164.5,130.167 164.5,130.833 164.5,131.5C 163.5,131.833 162.833,132.5 162.5,133.5C 161.5,133.833 160.833,134.5 160.5,135.5C 159.833,135.5 159.5,135.833 159.5,136.5C 157.973,136.427 156.973,137.094 156.5,138.5C 155.833,138.5 155.5,138.833 155.5,139.5C 154.508,139.328 153.842,139.662 153.5,140.5C 153.167,140.5 152.833,140.5 152.5,140.5C 150.887,141.692 149.22,142.692 147.5,143.5C 146.833,143.5 146.5,143.833 146.5,144.5C 146.167,144.5 145.833,144.5 145.5,144.5C 145.167,144.5 144.833,144.5 144.5,144.5C 143.833,144.5 143.5,144.833 143.5,145.5C 140.833,145.833 140.833,146.167 143.5,146.5C 142.791,147.404 141.791,147.737 140.5,147.5C 140.158,146.662 139.492,146.328 138.5,146.5C 137.508,146.328 136.842,146.662 136.5,147.5C 136.167,147.5 135.833,147.5 135.5,147.5C 134.5,147.5 133.5,147.5 132.5,147.5C 132.167,147.5 131.833,147.5 131.5,147.5C 131.5,147.167 131.5,146.833 131.5,146.5C 136.671,145.764 141.504,144.098 146,141.5C 152.879,138.427 159.046,134.427 164.5,129.5 Z"/></g>
<g><path style="opacity:1" fill="#dc4777" d="M 244.5,132.5 C 246.729,133.055 248.395,134.389 249.5,136.5C 253.877,137.399 257.877,139.066 261.5,141.5C 261.859,143.766 261.192,145.599 259.5,147C 260.5,148.667 261.5,150.333 262.5,152C 261.833,152.333 261.167,152.667 260.5,153C 262.009,178.588 263.009,204.254 263.5,230C 263.167,231.5 262.833,233 262.5,234.5C 261.817,234.137 261.15,233.804 260.5,233.5C 258.722,225.609 257.222,225.609 256,233.5C 255.667,232.833 255.333,232.167 255,231.5C 254.498,234.513 253.998,237.513 253.5,240.5C 253.5,241.167 253.167,241.5 252.5,241.5C 250.952,241.821 250.285,242.821 250.5,244.5C 248.401,245.231 246.401,245.231 244.5,244.5C 245.851,242.546 246.518,240.379 246.5,238C 245.765,228.851 245.265,219.684 245,210.5C 243.835,204.152 242.668,198.486 241.5,193.5C 240.448,193.649 239.448,193.483 238.5,193C 227.408,172.729 210.241,164.229 187,167.5C 185.97,167.164 185.47,166.497 185.5,165.5C 185.265,164.903 184.765,164.57 184,164.5C 177.88,166.474 172.38,169.474 167.5,173.5C 164.412,173.197 162.746,174.53 162.5,177.5C 160.473,177.662 158.473,177.495 156.5,177C 158.16,175.512 159.16,173.679 159.5,171.5C 160.415,169.246 161.748,167.246 163.5,165.5C 164.552,165.649 165.552,165.483 166.5,165C 167.78,163.034 169.447,161.534 171.5,160.5C 171.281,161.675 171.614,162.675 172.5,163.5C 174.55,162.923 175.55,161.59 175.5,159.5C 177.91,160.389 180.41,161.055 183,161.5C 187.294,160.174 191.627,158.841 196,157.5C 196.75,158.126 197.584,158.626 198.5,159C 204.115,158.65 209.781,159.316 215.5,161C 223.405,165.081 231.405,168.915 239.5,172.5C 241.629,174.656 243.962,176.323 246.5,177.5C 247.04,167.666 247.374,157.833 247.5,148C 247.904,144.904 246.571,143.071 243.5,142.5C 245.272,142.026 246.939,140.86 248.5,139C 247.975,138.308 247.308,137.808 246.5,137.5C 244.32,140.702 241.986,141.035 239.5,138.5C 243.375,138.295 245.041,136.295 244.5,132.5 Z"/></g>
<g><path style="opacity:1" fill="#fce3f2" d="M 20.5,114.5 C 20.2686,119.222 19.602,123.889 18.5,128.5C 18.7472,129.713 19.4138,130.38 20.5,130.5C 18.8359,134.496 17.1693,138.496 15.5,142.5C 15.5,142.833 15.5,143.167 15.5,143.5C 12.9858,147.871 10.9858,152.537 9.5,157.5C 9.16667,157.5 8.83333,157.5 8.5,157.5C 8.5,157.167 8.5,156.833 8.5,156.5C 8.55975,153.659 9.22642,150.993 10.5,148.5C 12.796,142.362 14.4626,136.029 15.5,129.5C 16.404,128.791 16.7373,127.791 16.5,126.5C 18.1429,122.591 19.4763,118.591 20.5,114.5 Z"/></g>
<g><path style="opacity:1" fill="#c94672" d="M 96.5,136.5 C 97.209,137.404 98.209,137.737 99.5,137.5C 99.5792,138.93 99.2458,140.264 98.5,141.5C 101.889,143.385 105.222,145.052 108.5,146.5C 106.236,145.781 103.903,145.448 101.5,145.5C 97.7233,145.066 94.39,143.733 91.5,141.5C 91.5198,139.857 90.8532,138.524 89.5,137.5C 91.7427,136.526 94.076,136.192 96.5,136.5 Z"/></g>
<g><path style="opacity:0.106" fill="#f6efec" d="M 162.5,138.5 C 163.833,139.167 163.833,139.167 162.5,138.5 Z"/></g>
<g><path style="opacity:0.106" fill="#f7eeee" d="M 179.5,138.5 C 180.833,139.167 180.833,139.167 179.5,138.5 Z"/></g>
<g><path style="opacity:0.871" fill="#f4e2ec" d="M 160.5,135.5 C 161.167,135.5 161.833,135.5 162.5,135.5C 162.5,135.833 162.5,136.167 162.5,136.5C 161.032,137.869 159.365,139.036 157.5,140C 158.094,140.464 158.761,140.631 159.5,140.5C 158.087,141.935 156.42,142.935 154.5,143.5C 152.999,142.557 151.665,142.891 150.5,144.5C 149.167,144.833 149.167,145.167 150.5,145.5C 148.393,146.468 146.059,146.802 143.5,146.5C 143.5,146.167 143.5,145.833 143.5,145.5C 143.5,144.833 143.833,144.5 144.5,144.5C 144.833,145.833 145.167,145.833 145.5,144.5C 145.833,144.5 146.167,144.5 146.5,144.5C 147.167,144.5 147.5,144.167 147.5,143.5C 149.22,142.692 150.887,141.692 152.5,140.5C 152.833,141.833 153.167,141.833 153.5,140.5C 153.842,139.662 154.508,139.328 155.5,139.5C 156.167,139.5 156.5,139.167 156.5,138.5C 156.973,137.094 157.973,136.427 159.5,136.5C 160.167,136.5 160.5,136.167 160.5,135.5 Z"/></g>
<g><path style="opacity:0.392" fill="#f9eef1" d="M 159.5,139.5 C 160.833,140.167 160.833,140.167 159.5,139.5 Z"/></g>
<g><path style="opacity:0.106" fill="#f6edee" d="M 184.5,140.5 C 183.448,140.649 182.448,140.483 181.5,140C 182.749,139.26 183.749,139.427 184.5,140.5 Z"/></g>
<g><path style="opacity:1" fill="#ba3c6a" d="M 160.5,122.5 C 161.497,122.47 162.164,122.97 162.5,124C 158.912,130.788 153.245,136.121 145.5,140C 140.133,140.983 135.467,143.149 131.5,146.5C 131.5,146.833 131.5,147.167 131.5,147.5C 128.833,147.5 126.167,147.5 123.5,147.5C 123.953,146.542 124.619,145.708 125.5,145C 127.5,144.667 129.5,144.333 131.5,144C 140.929,138.898 150.095,133.398 159,127.5C 160.009,125.975 160.509,124.308 160.5,122.5 Z"/></g>
<g><path style="opacity:0.041" fill="#f8ecee" d="M 162.5,143.5 C 159.999,143.489 159.832,142.822 162,141.5C 162.464,142.094 162.631,142.761 162.5,143.5 Z"/></g>
<g><path style="opacity:0.008" fill="#f3eeed" d="M 179.5,141.5 C 180.833,142.167 180.833,142.167 179.5,141.5 Z"/></g>
<g><path style="opacity:1" fill="#e86e91" d="M 202.5,142.5 C 211.254,141.044 220.087,141.377 229,143.5C 231.359,143.676 231.859,143.009 230.5,141.5C 232.645,141.738 234.312,142.738 235.5,144.5C 233.599,145.231 231.599,145.231 229.5,144.5C 220.61,142.786 211.61,142.119 202.5,142.5 Z"/></g>
<g><path style="opacity:0.106" fill="#f8efed" d="M 154.5,143.5 C 155.833,144.167 155.833,144.167 154.5,143.5 Z"/></g>
<g><path style="opacity:0.041" fill="#f3ebee" d="M 162.5,143.5 C 165.336,143.202 165.836,143.869 164,145.5C 163.283,144.956 162.783,144.289 162.5,143.5 Z"/></g>
<g><path style="opacity:1" fill="#f54e7e" d="M 201.5,142.5 C 201.833,142.5 202.167,142.5 202.5,142.5C 211.61,142.119 220.61,142.786 229.5,144.5C 231.372,146.062 233.705,147.062 236.5,147.5C 235.728,151.182 234.228,154.516 232,157.5C 225.066,154.769 217.733,152.769 210,151.5C 204.831,150.986 200.664,152.652 197.5,156.5C 194.189,154.99 191.356,155.657 189,158.5C 187.184,155.658 184.684,153.825 181.5,153C 182.056,152.617 182.389,152.117 182.5,151.5C 188.792,148.185 195.125,145.185 201.5,142.5 Z"/></g>
<g><path style="opacity:0.249" fill="#f8eef0" d="M 150.5,145.5 C 150.5,145.167 150.5,144.833 150.5,144.5C 153.167,144.833 153.167,145.167 150.5,145.5 Z"/></g>
<g><path style="opacity:0.298" fill="#f8f0f0" d="M 270.5,145.5 C 271.833,146.167 271.833,146.167 270.5,145.5 Z"/></g>
<g><path style="opacity:1" fill="#fbddeb" d="M 31.5,133.5 C 30.5257,138.064 30.5257,142.564 31.5,147C 29.5263,150.457 27.8596,153.957 26.5,157.5C 26.5,156.167 26.5,154.833 26.5,153.5C 27.9825,146.795 29.6491,140.128 31.5,133.5 Z"/></g>
<g><path style="opacity:1" fill="#bf6a86" d="M 101.5,145.5 C 103.903,145.448 106.236,145.781 108.5,146.5C 113.453,147.329 118.453,147.663 123.5,147.5C 126.167,147.5 128.833,147.5 131.5,147.5C 131.833,147.5 132.167,147.5 132.5,147.5C 132.5,148.167 132.167,148.5 131.5,148.5C 130.209,148.263 129.209,148.596 128.5,149.5C 119.101,149.987 110.101,148.653 101.5,145.5 Z"/></g>
<g><path style="opacity:1" fill="#c694a6" d="M 9.5,144.5 C 9.23219,146.099 9.56552,147.432 10.5,148.5C 9.22642,150.993 8.55975,153.659 8.5,156.5C 8.16667,156.5 7.83333,156.5 7.5,156.5C 7.71351,154.856 7.38017,153.356 6.5,152C 8.68905,151.323 9.02238,150.156 7.5,148.5C 7.99431,146.974 8.66097,145.641 9.5,144.5 Z"/></g>
<g><path style="opacity:1" fill="#cc7591" d="M 266.5,145.5 C 269.503,146.836 271.169,149.169 271.5,152.5C 270.833,152.167 270.167,151.833 269.5,151.5C 267.975,149.784 266.975,147.784 266.5,145.5 Z"/></g>
<g><path style="opacity:1" fill="#e4688b" d="M 201.5,142.5 C 195.125,145.185 188.792,148.185 182.5,151.5C 181.833,151.5 181.167,151.5 180.5,151.5C 186.614,146.614 193.614,143.614 201.5,142.5 Z"/></g>
<g><path style="opacity:1" fill="#cd4273" d="M 261.5,141.5 C 261.833,141.5 262.167,141.5 262.5,141.5C 264.167,142.5 265.5,143.833 266.5,145.5C 266.975,147.784 267.975,149.784 269.5,151.5C 269.276,153.787 268.609,155.953 267.5,158C 268.022,158.95 268.689,159.784 269.5,160.5C 269.841,168.47 269.841,176.637 269.5,185C 272.37,191.019 272.037,196.852 268.5,202.5C 268.808,203.308 269.308,203.975 270,204.5C 270.303,208.529 270.803,212.529 271.5,216.5C 270.145,220.392 269.311,220.059 269,215.5C 268.626,216.416 268.126,217.25 267.5,218C 268.718,219.438 269.385,221.105 269.5,223C 268.359,225.163 267.693,227.496 267.5,230C 268.205,234.228 268.538,238.395 268.5,242.5C 268.329,243.879 268.162,245.546 268,247.5C 267.167,246.5 266.333,245.5 265.5,244.5C 265.167,245 264.833,245.5 264.5,246C 265.167,247.333 265.833,248.667 266.5,250C 266.167,250.5 265.833,251 265.5,251.5C 261.688,250.284 259.354,247.784 258.5,244C 259.409,240.534 260.076,237.034 260.5,233.5C 261.15,233.804 261.817,234.137 262.5,234.5C 262.833,233 263.167,231.5 263.5,230C 263.009,204.254 262.009,178.588 260.5,153C 261.167,152.667 261.833,152.333 262.5,152C 261.5,150.333 260.5,148.667 259.5,147C 261.192,145.599 261.859,143.766 261.5,141.5 Z"/></g>
<g><path style="opacity:0.035" fill="#f8eff1" d="M 211.5,136.5 C 217.996,137.554 224.329,139.221 230.5,141.5C 231.859,143.009 231.359,143.676 229,143.5C 220.087,141.377 211.254,141.044 202.5,142.5C 202.167,142.5 201.833,142.5 201.5,142.5C 193.614,143.614 186.614,146.614 180.5,151.5C 178.973,151.427 177.973,152.094 177.5,153.5C 172.452,157.029 167.785,161.029 163.5,165.5C 161.748,167.246 160.415,169.246 159.5,171.5C 157.478,173.531 155.811,175.865 154.5,178.5C 152.231,182.038 150.231,185.705 148.5,189.5C 148.196,188.85 147.863,188.183 147.5,187.5C 149.223,184.268 150.556,180.935 151.5,177.5C 152.167,177.5 152.5,177.167 152.5,176.5C 152.167,176.5 151.833,176.5 151.5,176.5C 149.583,175.091 147.75,173.424 146,171.5C 140.668,164.007 135.168,156.673 129.5,149.5C 130.492,149.672 131.158,149.338 131.5,148.5C 132.167,148.5 132.5,148.167 132.5,147.5C 133.5,147.5 134.5,147.5 135.5,147.5C 135.833,148.833 136.167,148.833 136.5,147.5C 136.842,146.662 137.508,146.328 138.5,146.5C 138.842,147.338 139.508,147.672 140.5,147.5C 140.082,148.222 139.416,148.722 138.5,149C 140.991,149.626 140.991,150.459 138.5,151.5C 139.348,153.409 139.682,155.409 139.5,157.5C 143.025,157.785 146.358,157.119 149.5,155.5C 150.741,156.037 151.908,156.704 153,157.5C 155.099,156.713 157.266,156.38 159.5,156.5C 159.5,155.5 159.5,154.5 159.5,153.5C 160.675,153.719 161.675,153.386 162.5,152.5C 163.691,148.178 165.025,147.845 166.5,151.5C 167.521,149.381 169.021,147.714 171,146.5C 172.619,145.917 174.452,145.917 176.5,146.5C 176.736,145.753 177.07,144.92 177.5,144C 180.442,143.856 182.776,142.689 184.5,140.5C 186.099,140.768 187.432,140.434 188.5,139.5C 189.167,139.5 189.833,139.5 190.5,139.5C 191.167,139.5 191.5,139.167 191.5,138.5C 192.167,138.5 192.833,138.5 193.5,138.5C 194.167,138.5 194.5,138.167 194.5,137.5C 200.121,136.646 205.788,136.313 211.5,136.5 Z M 170.5,149.5 C 173.001,149.511 173.168,150.178 171,151.5C 170.536,150.906 170.369,150.239 170.5,149.5 Z M 149.5,161.5 C 151.337,161.639 151.67,162.306 150.5,163.5C 149.702,163.043 149.369,162.376 149.5,161.5 Z M 158.5,161.5 C 158.5,162.167 158.833,162.5 159.5,162.5C 159.167,163.167 158.833,163.833 158.5,164.5C 158.167,164.5 157.833,164.5 157.5,164.5C 157.5,163.833 157.167,163.5 156.5,163.5C 156.833,162.5 157.5,161.833 158.5,161.5 Z M 156.5,163.5 C 157.167,163.5 157.5,163.833 157.5,164.5C 157.5,165.167 157.5,165.833 157.5,166.5C 156.5,166.5 155.5,166.5 154.5,166.5C 154.285,164.821 154.952,163.821 156.5,163.5 Z M 155.5,170.5 C 155.167,171.167 154.833,171.833 154.5,172.5C 153.243,171.377 153.576,170.711 155.5,170.5 Z M 154.5,173.5 C 154.573,175.027 153.906,176.027 152.5,176.5C 152.427,174.973 153.094,173.973 154.5,173.5 Z"/></g>
<g><path style="opacity:0.008" fill="#f6eded" d="M 146.5,152.5 C 146.103,153.525 145.437,153.692 144.5,153C 145.094,152.536 145.761,152.369 146.5,152.5 Z"/></g>
<g><path style="opacity:0.106" fill="#f6edee" d="M 140.5,153.5 C 140.897,152.475 141.563,152.308 142.5,153C 141.906,153.464 141.239,153.631 140.5,153.5 Z"/></g>
<g><path style="opacity:0.106" fill="#f7eeee" d="M 146.5,151.5 C 147.833,152.167 147.833,152.167 146.5,151.5 Z"/></g>
<g><path style="opacity:0.106" fill="#f7edee" d="M 142.5,151.5 C 143.251,150.427 144.251,150.26 145.5,151C 144.552,151.483 143.552,151.649 142.5,151.5 Z"/></g>
<g><path style="opacity:0.041" fill="#f1eeeb" d="M 155.5,148.5 C 157.465,148.948 157.798,149.948 156.5,151.5C 155.614,150.675 155.281,149.675 155.5,148.5 Z"/></g>
<g><path style="opacity:0.2" fill="#f9edef" d="M 141.5,149.5 C 142.251,148.427 143.251,148.26 144.5,149C 143.552,149.483 142.552,149.649 141.5,149.5 Z"/></g>
<g><path style="opacity:0.008" fill="#f6eded" d="M 145.5,147.5 C 146.833,148.167 146.833,148.167 145.5,147.5 Z"/></g>
<g><path style="opacity:1" fill="#c06b89" d="M 273.5,155.5 C 273.96,156.765 275.293,157.931 277.5,159C 277.402,160.285 277.402,161.451 277.5,162.5C 276.21,161.942 275.377,160.942 275,159.5C 274.601,159.728 274.435,160.062 274.5,160.5C 273.549,159.081 273.216,157.415 273.5,155.5 Z"/></g>
<g><path style="opacity:1" fill="#d6678a" d="M 177.5,153.5 C 175.5,155.833 173.5,158.167 171.5,160.5C 169.447,161.534 167.78,163.034 166.5,165C 165.552,165.483 164.552,165.649 163.5,165.5C 167.785,161.029 172.452,157.029 177.5,153.5 Z"/></g>
<g><path style="opacity:0.742" fill="#f7e0ed" d="M 7.5,156.5 C 7.5,157.167 7.83333,157.5 8.5,157.5C 8.5,158.167 8.83333,158.5 9.5,158.5C 8.37023,160.315 7.70356,162.315 7.5,164.5C 7.16667,164.5 6.83333,164.5 6.5,164.5C 6.66991,161.447 7.00324,158.78 7.5,156.5 Z"/></g>
<g><path style="opacity:1" fill="#c44071" d="M 26.5,153.5 C 26.5,154.833 26.5,156.167 26.5,157.5C 26.5,157.833 26.5,158.167 26.5,158.5C 22.8174,176.524 21.6507,194.858 23,213.5C 23.5693,219.749 24.7359,225.749 26.5,231.5C 28.7059,241.243 32.0392,250.577 36.5,259.5C 33.8163,258.496 32.3163,256.496 32,253.5C 30.5823,256.001 29.5823,255.668 29,252.5C 27.7638,253.399 26.9304,254.566 26.5,256C 27.7321,258.151 27.7321,260.317 26.5,262.5C 26.8333,263.167 27.1667,263.833 27.5,264.5C 30.7819,257.669 32.1152,257.835 31.5,265C 30.552,265.483 29.552,265.649 28.5,265.5C 29.2076,268.932 29.2076,272.598 28.5,276.5C 30.2041,278.602 31.5374,280.935 32.5,283.5C 34.5947,284.081 36.428,284.081 38,283.5C 38.7112,285.367 38.2112,286.867 36.5,288C 38.1742,289.506 39.1742,291.339 39.5,293.5C 35.5239,291.034 32.5239,287.7 30.5,283.5C 28.6865,279.6 27.0198,275.6 25.5,271.5C 25.7093,270.914 26.0426,270.414 26.5,270C 23.8004,268.887 21.1337,267.72 18.5,266.5C 16.509,264.177 15.1757,261.511 14.5,258.5C 13.7659,257.292 13.4326,255.959 13.5,254.5C 13.5674,253.041 13.2341,251.708 12.5,250.5C 12.162,247.843 12.8287,245.51 14.5,243.5C 13.0133,234.751 13.3466,226.084 15.5,217.5C 12.9585,208.792 12.9585,200.125 15.5,191.5C 15.4289,180.871 15.0955,170.371 14.5,160C 14.5944,157.046 15.0944,156.879 16,159.5C 16.5,158.5 17,157.5 17.5,156.5C 17.8734,154.565 17.2068,152.732 15.5,151C 17.5302,147.779 18.5302,144.279 18.5,140.5C 20.7587,134.649 23.592,128.983 27,123.5C 27.7431,125.645 28.5765,125.811 29.5,124C 28.8524,122.56 28.5191,121.06 28.5,119.5C 29.8221,119.67 30.9887,119.337 32,118.5C 32.1667,119.667 32.3333,120.833 32.5,122C 31.4431,125.084 30.4431,128.25 29.5,131.5C 28.3652,132.103 27.3652,132.436 26.5,132.5C 27.5437,133.623 28.2104,134.956 28.5,136.5C 26.8041,142.039 26.1374,147.706 26.5,153.5 Z"/></g>
<g><path style="opacity:1" fill="#d3a6b9" d="M 6.5,164.5 C 6.5,165.167 6.83333,165.5 7.5,165.5C 7.67158,166.492 7.33825,167.158 6.5,167.5C 5.16667,166.5 5.16667,165.5 6.5,164.5 Z"/></g>
<g><path style="opacity:0.008" fill="#fae4ef" d="M 5.5,169.5 C 5.5,170.167 5.5,170.833 5.5,171.5C 4.83333,171.5 4.5,171.833 4.5,172.5C 3.28485,171.221 3.61818,170.221 5.5,169.5 Z"/></g>
<g><path style="opacity:0.584" fill="#f1cdde" d="M 4.5,172.5 C 4.83333,172.5 5.16667,172.5 5.5,172.5C 5.5,173.167 5.5,173.833 5.5,174.5C 4.66175,174.842 4.32842,175.508 4.5,176.5C 4.16667,176.5 3.83333,176.5 3.5,176.5C 3.43255,175.041 3.76589,173.708 4.5,172.5 Z"/></g>
<g><path style="opacity:1" fill="#c13e6f" d="M 269.5,151.5 C 270.167,151.833 270.833,152.167 271.5,152.5C 272.906,152.973 273.573,153.973 273.5,155.5C 273.216,157.415 273.549,159.081 274.5,160.5C 274.367,164.515 275.367,168.182 277.5,171.5C 276.617,172.548 275.95,173.715 275.5,175C 277.187,176.853 278.187,179.019 278.5,181.5C 276.825,187.751 276.325,194.085 277,200.5C 277.556,198.405 278.056,198.238 278.5,200C 278.593,208.48 278.26,216.98 277.5,225.5C 275.989,228.544 275.322,231.878 275.5,235.5C 275.5,235.833 275.5,236.167 275.5,236.5C 273.876,236.36 272.71,237.027 272,238.5C 271.667,237.833 271.333,237.167 271,236.5C 270.76,238.852 269.927,240.852 268.5,242.5C 268.538,238.395 268.205,234.228 267.5,230C 267.693,227.496 268.359,225.163 269.5,223C 269.385,221.105 268.718,219.438 267.5,218C 268.126,217.25 268.626,216.416 269,215.5C 269.311,220.059 270.145,220.392 271.5,216.5C 270.803,212.529 270.303,208.529 270,204.5C 269.308,203.975 268.808,203.308 268.5,202.5C 272.037,196.852 272.37,191.019 269.5,185C 269.841,176.637 269.841,168.47 269.5,160.5C 268.689,159.784 268.022,158.95 267.5,158C 268.609,155.953 269.276,153.787 269.5,151.5 Z"/></g>
<g><path style="opacity:1" fill="#c04970" d="M 159.5,171.5 C 159.16,173.679 158.16,175.512 156.5,177C 158.473,177.495 160.473,177.662 162.5,177.5C 162.746,174.53 164.412,173.197 167.5,173.5C 163.805,177.526 160.138,181.526 156.5,185.5C 155.5,185.5 154.5,185.5 153.5,185.5C 153.993,183.194 154.326,180.861 154.5,178.5C 155.811,175.865 157.478,173.531 159.5,171.5 Z"/></g>
<g><path style="opacity:1" fill="#963163" d="M 223.5,199.5 C 219.619,195.603 215.619,191.769 211.5,188C 205.79,186.7 200.29,184.867 195,182.5C 189.522,183.609 184.022,184.609 178.5,185.5C 174.846,187.981 171.179,189.648 167.5,190.5C 164.962,189.743 164.295,188.41 165.5,186.5C 165.56,187.043 165.893,187.376 166.5,187.5C 167.853,186.315 169.02,184.981 170,183.5C 170.689,184.357 171.522,185.023 172.5,185.5C 186.125,179.206 199.791,179.04 213.5,185C 218.21,188.931 221.543,193.765 223.5,199.5 Z"/></g>
<g><path style="opacity:1" fill="#b4396b" d="M 18.5,140.5 C 18.5302,144.279 17.5302,147.779 15.5,151C 17.2068,152.732 17.8734,154.565 17.5,156.5C 17,157.5 16.5,158.5 16,159.5C 15.0944,156.879 14.5944,157.046 14.5,160C 15.0955,170.371 15.4289,180.871 15.5,191.5C 12.9585,200.125 12.9585,208.792 15.5,217.5C 13.3466,226.084 13.0133,234.751 14.5,243.5C 12.8287,245.51 12.162,247.843 12.5,250.5C 9.45074,243.208 7.45074,235.542 6.5,227.5C 7.7305,222.057 8.7305,216.557 9.5,211C 8.77906,197.994 8.44572,184.994 8.5,172C 10.141,162.313 12.4744,152.813 15.5,143.5C 15.5,143.167 15.5,142.833 15.5,142.5C 16.7777,142.218 17.7777,141.551 18.5,140.5 Z"/></g>
<g><path style="opacity:1" fill="#fbe1ee" d="M 26.5,158.5 C 25.0977,171.281 24.431,184.114 24.5,197C 24.3679,208.667 25.0346,220.167 26.5,231.5C 24.7359,225.749 23.5693,219.749 23,213.5C 21.6507,194.858 22.8174,176.524 26.5,158.5 Z"/></g>
<g><path style="opacity:1" fill="#bf3c6f" d="M 184.5,166.5 C 182.94,168.129 183.273,169.296 185.5,170C 203.141,167.652 217.641,173.152 229,186.5C 239.983,203.562 243.15,222.062 238.5,242C 239.12,244.473 239.786,246.973 240.5,249.5C 242.071,250.309 243.738,250.643 245.5,250.5C 241.14,257.192 235.474,262.526 228.5,266.5C 227.833,266.5 227.167,266.5 226.5,266.5C 228.256,257.814 231.089,249.48 235,241.5C 236.489,227.186 235.156,213.186 231,199.5C 229.032,196.187 227.032,192.854 225,189.5C 223.269,187.383 221.102,185.883 218.5,185C 217.833,183.667 217.167,182.333 216.5,181C 208.38,177.345 199.88,175.178 191,174.5C 190.667,174.833 190.333,175.167 190,175.5C 187.399,172.696 185.899,173.029 185.5,176.5C 183.516,176.617 181.85,175.95 180.5,174.5C 178.866,174.968 177.7,175.968 177,177.5C 175.812,176.437 175.312,175.103 175.5,173.5C 177.949,170.444 180.949,168.111 184.5,166.5 Z"/></g>
<g><path style="opacity:1" fill="#b03e6b" d="M 277.5,162.5 C 280.215,166.989 281.548,171.989 281.5,177.5C 282.701,189.495 282.701,201.495 281.5,213.5C 281.451,217.078 280.785,220.411 279.5,223.5C 278.833,224.167 278.167,224.833 277.5,225.5C 278.26,216.98 278.593,208.48 278.5,200C 278.056,198.238 277.556,198.405 277,200.5C 276.325,194.085 276.825,187.751 278.5,181.5C 278.187,179.019 277.187,176.853 275.5,175C 275.95,173.715 276.617,172.548 277.5,171.5C 275.367,168.182 274.367,164.515 274.5,160.5C 274.435,160.062 274.601,159.728 275,159.5C 275.377,160.942 276.21,161.942 277.5,162.5 Z"/></g>
<g><path style="opacity:1" fill="#ab5273" d="M 154.5,178.5 C 154.326,180.861 153.993,183.194 153.5,185.5C 154.5,185.5 155.5,185.5 156.5,185.5C 153.82,189.537 151.154,193.537 148.5,197.5C 147.662,197.158 147.328,196.492 147.5,195.5C 147.833,193.5 148.167,191.5 148.5,189.5C 150.231,185.705 152.231,182.038 154.5,178.5 Z"/></g>
<g><path style="opacity:1" fill="#cd4173" d="M 185.5,165.5 C 185.47,166.497 185.97,167.164 187,167.5C 210.241,164.229 227.408,172.729 238.5,193C 239.448,193.483 240.448,193.649 241.5,193.5C 242.668,198.486 243.835,204.152 245,210.5C 245.265,219.684 245.765,228.851 246.5,238C 246.518,240.379 245.851,242.546 244.5,244.5C 246.401,245.231 248.401,245.231 250.5,244.5C 250.285,242.821 250.952,241.821 252.5,241.5C 251.306,245.363 248.973,248.363 245.5,250.5C 243.738,250.643 242.071,250.309 240.5,249.5C 239.786,246.973 239.12,244.473 238.5,242C 243.15,222.062 239.983,203.562 229,186.5C 217.641,173.152 203.141,167.652 185.5,170C 183.273,169.296 182.94,168.129 184.5,166.5C 184.5,165.833 184.833,165.5 185.5,165.5 Z"/></g>
<g><path style="opacity:1" fill="#b6718e" d="M 281.5,177.5 C 282.167,177.5 282.833,177.5 283.5,177.5C 283.5,178.167 283.5,178.833 283.5,179.5C 282.167,180.5 282.167,181.5 283.5,182.5C 283.5,190.833 283.5,199.167 283.5,207.5C 282.833,209.5 282.167,211.5 281.5,213.5C 282.701,201.495 282.701,189.495 281.5,177.5 Z"/></g>
<g><path style="opacity:1" fill="#f9ecf4" d="M 185.5,165.5 C 184.833,165.5 184.5,165.833 184.5,166.5C 180.949,168.111 177.949,170.444 175.5,173.5C 171.766,176.231 168.766,179.564 166.5,183.5C 163.815,186.19 161.482,189.19 159.5,192.5C 154.336,199.163 150.502,206.496 148,214.5C 149.617,212.237 151.45,210.237 153.5,208.5C 152.587,210.086 152.587,211.586 153.5,213C 151.545,213.953 149.878,215.287 148.5,217C 147.552,217.483 146.552,217.649 145.5,217.5C 145.67,216.178 145.337,215.011 144.5,214C 147.213,211.227 146.546,209.394 142.5,208.5C 142.942,207.261 143.609,206.261 144.5,205.5C 146.341,203.151 147.674,200.485 148.5,197.5C 151.154,193.537 153.82,189.537 156.5,185.5C 160.138,181.526 163.805,177.526 167.5,173.5C 172.38,169.474 177.88,166.474 184,164.5C 184.765,164.57 185.265,164.903 185.5,165.5 Z"/></g>
<g><path style="opacity:1" fill="#6f405b" d="M 159.5,192.5 C 159.167,194.5 158.833,196.5 158.5,198.5C 161.374,197.937 164.04,196.937 166.5,195.5C 161.86,199.473 157.527,203.806 153.5,208.5C 151.45,210.237 149.617,212.237 148,214.5C 150.502,206.496 154.336,199.163 159.5,192.5 Z"/></g>
<g><path style="opacity:1" fill="#a37084" d="M 147.5,195.5 C 147.328,196.492 147.662,197.158 148.5,197.5C 147.674,200.485 146.341,203.151 144.5,205.5C 144.723,201.838 145.723,198.505 147.5,195.5 Z"/></g>
<g><path style="opacity:1" fill="#763b5f" d="M 203.5,189.5 C 208.067,189.521 211.901,191.188 215,194.5C 217.656,199.224 219.489,204.224 220.5,209.5C 217.023,201.019 211.356,194.352 203.5,189.5 Z"/></g>
<g><path style="opacity:1" fill="#a04c70" d="M 5.5,174.5 C 3.55806,189.079 3.05806,203.746 4,218.5C 4.05725,221.851 4.89058,224.851 6.5,227.5C 7.45074,235.542 9.45074,243.208 12.5,250.5C 13.2341,251.708 13.5674,253.041 13.5,254.5C 13.1667,254.5 12.8333,254.5 12.5,254.5C 12.1151,252.516 10.7818,250.683 8.5,249C 9.05596,248.617 9.38929,248.117 9.5,247.5C 9.67158,246.508 9.33825,245.842 8.5,245.5C 8.5,244.833 8.5,244.167 8.5,243.5C 8.16667,242.833 7.83333,242.167 7.5,241.5C 7.5,241.167 7.5,240.833 7.5,240.5C 7.74061,238.102 7.07394,236.102 5.5,234.5C 5.56745,233.041 5.23411,231.708 4.5,230.5C 4.5,230.167 4.5,229.833 4.5,229.5C 4.16667,228.833 3.83333,228.167 3.5,227.5C 3.5,226.5 3.5,225.5 3.5,224.5C 3.56745,223.041 3.23411,221.708 2.5,220.5C 2.5,219.833 2.5,219.167 2.5,218.5C 1.72329,209.188 1.38995,199.854 1.5,190.5C 1.57935,185.54 2.24602,180.874 3.5,176.5C 3.83333,177.833 4.16667,177.833 4.5,176.5C 4.32842,175.508 4.66175,174.842 5.5,174.5 Z"/></g>
<g><path style="opacity:1" fill="#8a3060" d="M 223.5,199.5 C 224.167,199.833 224.833,200.167 225.5,200.5C 225.767,207.056 227.101,213.556 229.5,220C 228.13,229.722 226.463,239.055 224.5,248C 224.833,248.333 225.167,248.667 225.5,249C 224.276,252.277 222.609,255.11 220.5,257.5C 223.903,248.688 225.236,239.521 224.5,230C 224.333,224.833 224.167,219.667 224,214.5C 222.97,212.654 221.804,210.987 220.5,209.5C 219.489,204.224 217.656,199.224 215,194.5C 211.901,191.188 208.067,189.521 203.5,189.5C 203.5,188.5 203.5,187.5 203.5,186.5C 196.846,185.693 190.18,185.526 183.5,186C 178.263,188.146 172.929,189.979 167.5,191.5C 167.5,192.833 167.5,194.167 167.5,195.5C 167.167,195.5 166.833,195.5 166.5,195.5C 164.04,196.937 161.374,197.937 158.5,198.5C 158.833,196.5 159.167,194.5 159.5,192.5C 161.482,189.19 163.815,186.19 166.5,183.5C 166.443,184.609 166.11,185.609 165.5,186.5C 164.295,188.41 164.962,189.743 167.5,190.5C 171.179,189.648 174.846,187.981 178.5,185.5C 184.022,184.609 189.522,183.609 195,182.5C 200.29,184.867 205.79,186.7 211.5,188C 215.619,191.769 219.619,195.603 223.5,199.5 Z"/></g>
<g><path style="opacity:1" fill="#7e3f60" d="M 203.5,189.5 C 190.45,185.389 178.45,187.389 167.5,195.5C 167.5,194.167 167.5,192.833 167.5,191.5C 172.929,189.979 178.263,188.146 183.5,186C 190.18,185.526 196.846,185.693 203.5,186.5C 203.5,187.5 203.5,188.5 203.5,189.5 Z"/></g>
<g><path style="opacity:0.915" fill="#f6dcea" d="M 1.5,190.5 C 1.38995,199.854 1.72329,209.188 2.5,218.5C 1.66175,218.842 1.32842,219.508 1.5,220.5C 2.13049,217.684 1.46383,215.018 -0.5,212.5C -0.5,212.167 -0.5,211.833 -0.5,211.5C 0.833333,210.833 0.833333,210.167 -0.5,209.5C -0.5,206.833 -0.5,204.167 -0.5,201.5C 0.833333,201.167 0.833333,200.833 -0.5,200.5C -0.5,198.5 -0.5,196.5 -0.5,194.5C 0.833333,194.167 0.833333,193.833 -0.5,193.5C -0.5,193.167 -0.5,192.833 -0.5,192.5C 0.166667,191.833 0.833333,191.167 1.5,190.5 Z"/></g>
<g><path style="opacity:1" fill="#a63869" d="M 15.5,143.5 C 12.4744,152.813 10.141,162.313 8.5,172C 8.44572,184.994 8.77906,197.994 9.5,211C 8.7305,216.557 7.7305,222.057 6.5,227.5C 4.89058,224.851 4.05725,221.851 4,218.5C 3.05806,203.746 3.55806,189.079 5.5,174.5C 5.5,173.833 5.5,173.167 5.5,172.5C 5.5,172.167 5.5,171.833 5.5,171.5C 5.5,170.833 5.5,170.167 5.5,169.5C 5.83333,168.833 6.16667,168.167 6.5,167.5C 7.33825,167.158 7.67158,166.492 7.5,165.5C 7.5,165.167 7.5,164.833 7.5,164.5C 7.70356,162.315 8.37023,160.315 9.5,158.5C 9.5,158.167 9.5,157.833 9.5,157.5C 10.9858,152.537 12.9858,147.871 15.5,143.5 Z"/></g>
<g><path style="opacity:0.202" fill="#f1cfdf" d="M 1.5,220.5 C 1.83333,220.5 2.16667,220.5 2.5,220.5C 3.23411,221.708 3.56745,223.041 3.5,224.5C 1.82351,223.817 1.15684,222.483 1.5,220.5 Z"/></g>
<g><path style="opacity:1" fill="#ac3669" d="M 175.5,173.5 C 175.312,175.103 175.812,176.437 177,177.5C 177.7,175.968 178.866,174.968 180.5,174.5C 181.85,175.95 183.516,176.617 185.5,176.5C 185.899,173.029 187.399,172.696 190,175.5C 190.333,175.167 190.667,174.833 191,174.5C 199.88,175.178 208.38,177.345 216.5,181C 217.167,182.333 217.833,183.667 218.5,185C 221.102,185.883 223.269,187.383 225,189.5C 227.032,192.854 229.032,196.187 231,199.5C 235.156,213.186 236.489,227.186 235,241.5C 231.089,249.48 228.256,257.814 226.5,266.5C 224.229,268.583 221.562,270.083 218.5,271C 218.833,271.333 219.167,271.667 219.5,272C 218.552,272.483 217.552,272.649 216.5,272.5C 216.67,269.324 218.337,267.324 221.5,266.5C 222.167,264.5 222.833,262.5 223.5,260.5C 224.934,259.77 226.1,258.77 227,257.5C 231.241,242.694 232.574,227.694 231,212.5C 229.922,208.02 228.089,204.02 225.5,200.5C 224.833,200.167 224.167,199.833 223.5,199.5C 221.543,193.765 218.21,188.931 213.5,185C 199.791,179.04 186.125,179.206 172.5,185.5C 171.522,185.023 170.689,184.357 170,183.5C 169.02,184.981 167.853,186.315 166.5,187.5C 165.893,187.376 165.56,187.043 165.5,186.5C 166.11,185.609 166.443,184.609 166.5,183.5C 168.766,179.564 171.766,176.231 175.5,173.5 Z"/></g>
<g><path style="opacity:1" fill="#c06987" d="M 279.5,223.5 C 278.909,226.94 277.909,230.273 276.5,233.5C 277.981,234.944 277.648,235.611 275.5,235.5C 275.322,231.878 275.989,228.544 277.5,225.5C 278.167,224.833 278.833,224.167 279.5,223.5 Z"/></g>
<g><path style="opacity:0.008" fill="#f9d3e3" d="M 3.5,227.5 C 3.83333,228.167 4.16667,228.833 4.5,229.5C 2.57591,229.289 2.24258,228.623 3.5,227.5 Z"/></g>
<g><path style="opacity:1" fill="#993265" d="M 225.5,200.5 C 228.089,204.02 229.922,208.02 231,212.5C 232.574,227.694 231.241,242.694 227,257.5C 226.1,258.77 224.934,259.77 223.5,260.5C 222.833,262.5 222.167,264.5 221.5,266.5C 218.337,267.324 216.67,269.324 216.5,272.5C 217.552,272.649 218.552,272.483 219.5,272C 219.167,271.667 218.833,271.333 218.5,271C 221.562,270.083 224.229,268.583 226.5,266.5C 227.167,266.5 227.833,266.5 228.5,266.5C 224.698,270.237 220.365,273.237 215.5,275.5C 213.712,275.785 212.045,275.452 210.5,274.5C 213.939,268.767 217.272,263.1 220.5,257.5C 222.609,255.11 224.276,252.277 225.5,249C 225.167,248.667 224.833,248.333 224.5,248C 226.463,239.055 228.13,229.722 229.5,220C 227.101,213.556 225.767,207.056 225.5,200.5 Z"/></g>
<g><path style="opacity:1" fill="#e1b3c8" d="M 4.5,230.5 C 5.23411,231.708 5.56745,233.041 5.5,234.5C 4.76109,234.631 4.09442,234.464 3.5,234C 3.65256,232.791 3.98589,231.625 4.5,230.5 Z"/></g>
<g><path style="opacity:0.008" fill="#f8e8ed" d="M 4.5,237.5 C 3.83333,238.167 3.83333,238.167 4.5,237.5 Z"/></g>
<g><path style="opacity:1" fill="#c894ab" d="M 5.5,234.5 C 7.07394,236.102 7.74061,238.102 7.5,240.5C 6.83333,240.5 6.5,240.833 6.5,241.5C 3.87528,240.534 3.87528,239.534 6.5,238.5C 6.04311,237.702 5.37644,237.369 4.5,237.5C 4.55688,236.391 4.89022,235.391 5.5,234.5 Z"/></g>
<g><path style="opacity:0.008" fill="#f4d3e1" d="M 6.5,241.5 C 6.83333,241.5 7.16667,241.5 7.5,241.5C 7.83333,242.167 8.16667,242.833 8.5,243.5C 6.79734,244.66 6.13068,243.993 6.5,241.5 Z"/></g>
<g><path style="opacity:0.106" fill="#f1c4d8" d="M 8.5,245.5 C 9.33825,245.842 9.67158,246.508 9.5,247.5C 7.57591,247.289 7.24258,246.623 8.5,245.5 Z"/></g>
<g><path style="opacity:1" fill="#ca5178" d="M 260.5,233.5 C 260.076,237.034 259.409,240.534 258.5,244C 259.354,247.784 261.688,250.284 265.5,251.5C 265.833,251 266.167,250.5 266.5,250C 265.833,248.667 265.167,247.333 264.5,246C 264.833,245.5 265.167,245 265.5,244.5C 266.333,245.5 267.167,246.5 268,247.5C 268.162,245.546 268.329,243.879 268.5,242.5C 269.927,240.852 270.76,238.852 271,236.5C 271.333,237.167 271.667,237.833 272,238.5C 272.71,237.027 273.876,236.36 275.5,236.5C 271.078,248.312 264.745,259.312 256.5,269.5C 256.44,266.979 257.106,264.646 258.5,262.5C 258.471,260.971 257.804,259.804 256.5,259C 258.059,258.02 259.726,257.187 261.5,256.5C 259.985,254.453 259.151,252.119 259,249.5C 256.841,247.044 256.008,247.71 256.5,251.5C 255.5,251.5 254.5,251.5 253.5,251.5C 253.226,253.981 251.893,255.647 249.5,256.5C 253.087,251.665 255.92,246.332 258,240.5C 259.124,237.558 259.458,234.558 259,231.5C 257.272,234.692 255.439,237.692 253.5,240.5C 253.998,237.513 254.498,234.513 255,231.5C 255.333,232.167 255.667,232.833 256,233.5C 257.222,225.609 258.722,225.609 260.5,233.5 Z"/></g>
<g><path style="opacity:1" fill="#e15f7f" d="M 160.5,273.5 C 162.289,267.981 162.789,262.315 162,256.5C 156.664,251.665 150.498,249.998 143.5,251.5C 143.5,252.5 143.5,253.5 143.5,254.5C 147.182,254.335 150.848,254.501 154.5,255C 155.056,255.383 155.389,255.883 155.5,256.5C 149.526,254.349 144.526,255.683 140.5,260.5C 140.5,259.167 140.5,257.833 140.5,256.5C 136.209,257.18 133.543,255.514 132.5,251.5C 132.833,251.5 133.167,251.5 133.5,251.5C 136.167,256.833 138.833,256.833 141.5,251.5C 149.724,247.739 156.891,249.073 163,255.5C 165.512,262.092 164.679,268.092 160.5,273.5 Z"/></g>
<g><path style="opacity:1" fill="#fcf1f7" d="M 249.5,256.5 C 242.773,263.232 235.773,269.565 228.5,275.5C 223.635,277.763 219.302,280.763 215.5,284.5C 213.973,284.427 212.973,285.094 212.5,286.5C 208.608,288.062 205.275,290.395 202.5,293.5C 200.938,293.733 199.605,294.4 198.5,295.5C 198.5,294.167 198.5,292.833 198.5,291.5C 200.929,291.415 202.929,290.415 204.5,288.5C 202.09,286.232 199.423,285.899 196.5,287.5C 196.833,286.833 197.167,286.167 197.5,285.5C 203.83,282.67 209.83,279.337 215.5,275.5C 220.365,273.237 224.698,270.237 228.5,266.5C 235.474,262.526 241.14,257.192 245.5,250.5C 248.973,248.363 251.306,245.363 252.5,241.5C 253.167,241.5 253.5,241.167 253.5,240.5C 255.439,237.692 257.272,234.692 259,231.5C 259.458,234.558 259.124,237.558 258,240.5C 255.92,246.332 253.087,251.665 249.5,256.5 Z"/></g>
<g><path style="opacity:1" fill="#da6783" d="M 117.5,251.5 C 113.374,256.266 111.707,261.932 112.5,268.5C 108.775,261.239 110.441,255.573 117.5,251.5 Z"/></g>
<g><path style="opacity:0.106" fill="#f1c7d8" d="M 12.5,254.5 C 12.8333,254.5 13.1667,254.5 13.5,254.5C 13.4326,255.959 13.7659,257.292 14.5,258.5C 12.15,257.805 11.4833,256.472 12.5,254.5 Z"/></g>
<g><path style="opacity:0.298" fill="#faecf0" d="M 13.5,261.5 C 14.8333,262.167 14.8333,262.167 13.5,261.5 Z"/></g>
<g><path style="opacity:1" fill="#d9507a" d="M 256.5,269.5 C 251.977,275.869 246.977,281.869 241.5,287.5C 240.5,287.833 239.833,288.5 239.5,289.5C 238.833,289.833 238.167,290.167 237.5,290.5C 237.5,288.833 237.5,287.167 237.5,285.5C 239.5,284.833 241.5,284.167 243.5,283.5C 243.5,282.5 243.5,281.5 243.5,280.5C 244.5,280.5 245.5,280.5 246.5,280.5C 247.499,275.499 247.499,270.832 246.5,266.5C 244.473,266.338 242.473,266.505 240.5,267C 236.88,270.467 232.88,273.3 228.5,275.5C 235.773,269.565 242.773,263.232 249.5,256.5C 251.893,255.647 253.226,253.981 253.5,251.5C 254.5,251.5 255.5,251.5 256.5,251.5C 256.008,247.71 256.841,247.044 259,249.5C 259.151,252.119 259.985,254.453 261.5,256.5C 259.726,257.187 258.059,258.02 256.5,259C 257.804,259.804 258.471,260.971 258.5,262.5C 257.106,264.646 256.44,266.979 256.5,269.5 Z"/></g>
<g><path style="opacity:0.008" fill="#fae8ed" d="M 18.5,267.5 C 17.8333,268.167 17.8333,268.167 18.5,267.5 Z"/></g>
<g><path style="opacity:1" fill="#ca5e82" d="M 18.5,267.5 C 18.5,267.167 18.5,266.833 18.5,266.5C 21.1337,267.72 23.8004,268.887 26.5,270C 26.0426,270.414 25.7093,270.914 25.5,271.5C 27.0198,275.6 28.6865,279.6 30.5,283.5C 27.0304,279.798 23.6971,275.964 20.5,272C 20.8333,271.667 21.1667,271.333 21.5,271C 20.3636,269.855 19.3636,268.688 18.5,267.5 Z"/></g>
<g><path style="opacity:0.008" fill="#faebed" d="M 256.5,271.5 C 257.833,272.167 257.833,272.167 256.5,271.5 Z"/></g>
<g><path style="opacity:1" fill="#eb517e" d="M 237.5,290.5 C 237.5,290.833 237.5,291.167 237.5,291.5C 235.5,293.167 233.5,294.833 231.5,296.5C 230.167,297.167 229.167,298.167 228.5,299.5C 226.833,300.5 225.5,301.833 224.5,303.5C 222.589,304.075 220.922,305.075 219.5,306.5C 219.5,305.167 219.5,303.833 219.5,302.5C 220.5,302.5 221.5,302.5 222.5,302.5C 222.429,299.976 223.429,297.976 225.5,296.5C 225.19,292.303 226.523,288.47 229.5,285C 228.663,283.989 228.33,282.822 228.5,281.5C 230.226,281.815 231.893,281.981 233.5,282C 231.9,280.185 229.9,279.018 227.5,278.5C 223.563,280.697 219.563,282.697 215.5,284.5C 219.302,280.763 223.635,277.763 228.5,275.5C 232.88,273.3 236.88,270.467 240.5,267C 242.473,266.505 244.473,266.338 246.5,266.5C 247.499,270.832 247.499,275.499 246.5,280.5C 245.5,280.5 244.5,280.5 243.5,280.5C 243.5,281.5 243.5,282.5 243.5,283.5C 241.5,284.167 239.5,284.833 237.5,285.5C 237.5,287.167 237.5,288.833 237.5,290.5 Z"/></g>
<g><path style="opacity:1" fill="#73395b" d="M 220.5,209.5 C 221.804,210.987 222.97,212.654 224,214.5C 224.167,219.667 224.333,224.833 224.5,230C 225.236,239.521 223.903,248.688 220.5,257.5C 217.272,263.1 213.939,268.767 210.5,274.5C 212.045,275.452 213.712,275.785 215.5,275.5C 209.83,279.337 203.83,282.67 197.5,285.5C 196.508,285.672 195.842,285.338 195.5,284.5C 220.059,265.021 228.393,240.021 220.5,209.5 Z"/></g>
<g><path style="opacity:1" fill="#de4879" d="M 36.5,259.5 C 44.2934,271.379 53.2934,282.379 63.5,292.5C 61.4012,293.231 59.4012,293.231 57.5,292.5C 56.8333,291.833 56.1667,291.167 55.5,290.5C 56.6446,289.109 56.6446,287.776 55.5,286.5C 53.4782,285.055 51.6449,283.388 50,281.5C 49.3468,283.564 48.1801,285.231 46.5,286.5C 47.325,287.386 48.325,287.719 49.5,287.5C 48.0905,290.95 47.4238,294.616 47.5,298.5C 45.0993,296.438 42.4326,294.771 39.5,293.5C 39.1742,291.339 38.1742,289.506 36.5,288C 38.2112,286.867 38.7112,285.367 38,283.5C 36.428,284.081 34.5947,284.081 32.5,283.5C 31.5374,280.935 30.2041,278.602 28.5,276.5C 29.2076,272.598 29.2076,268.932 28.5,265.5C 29.552,265.649 30.552,265.483 31.5,265C 32.1152,257.835 30.7819,257.669 27.5,264.5C 27.1667,263.833 26.8333,263.167 26.5,262.5C 27.7321,260.317 27.7321,258.151 26.5,256C 26.9304,254.566 27.7638,253.399 29,252.5C 29.5823,255.668 30.5823,256.001 32,253.5C 32.3163,256.496 33.8163,258.496 36.5,259.5 Z"/></g>
<g><path style="opacity:1" fill="#fad4e0" d="M 157.5,277.5 C 155.21,281.79 151.877,285.123 147.5,287.5C 150.5,283.833 153.833,280.5 157.5,277.5 Z"/></g>
<g><path style="opacity:1" fill="#e8567e" d="M 132.5,251.5 C 133.543,255.514 136.209,257.18 140.5,256.5C 140.5,257.833 140.5,259.167 140.5,260.5C 139.984,262.2 138.984,263.533 137.5,264.5C 134.47,259.304 129.97,256.304 124,255.5C 119.544,255.956 117.044,258.456 116.5,263C 117.413,266.992 119.246,270.492 122,273.5C 127.015,278.682 132.181,283.682 137.5,288.5C 144.184,282.65 150.35,276.317 156,269.5C 159.452,264.963 159.285,260.629 155.5,256.5C 155.389,255.883 155.056,255.383 154.5,255C 150.848,254.501 147.182,254.335 143.5,254.5C 143.5,253.5 143.5,252.5 143.5,251.5C 150.498,249.998 156.664,251.665 162,256.5C 162.789,262.315 162.289,267.981 160.5,273.5C 159.5,274.833 158.5,276.167 157.5,277.5C 153.833,280.5 150.5,283.833 147.5,287.5C 144.369,290.129 141.369,292.962 138.5,296C 137.833,296.667 137.167,296.667 136.5,296C 129.667,289.167 122.833,282.333 116,275.5C 114.295,273.423 113.128,271.09 112.5,268.5C 111.707,261.932 113.374,256.266 117.5,251.5C 122.367,248.953 127.367,248.953 132.5,251.5 Z"/></g>
<g><path style="opacity:1" fill="#fdf8fa" d="M 140.5,260.5 C 144.526,255.683 149.526,254.349 155.5,256.5C 159.285,260.629 159.452,264.963 156,269.5C 150.35,276.317 144.184,282.65 137.5,288.5C 132.181,283.682 127.015,278.682 122,273.5C 119.246,270.492 117.413,266.992 116.5,263C 117.044,258.456 119.544,255.956 124,255.5C 129.97,256.304 134.47,259.304 137.5,264.5C 138.984,263.533 139.984,262.2 140.5,260.5 Z"/></g>
<g><path style="opacity:1" fill="#ffdae9" d="M 133.5,251.5 C 135.017,251.511 136.184,252.177 137,253.5C 138.11,251.963 139.61,251.297 141.5,251.5C 138.833,256.833 136.167,256.833 133.5,251.5 Z"/></g>
<g><path style="opacity:1" fill="#6b5a6a" d="M 195.5,284.5 C 195.842,285.338 196.508,285.672 197.5,285.5C 197.167,286.167 196.833,286.833 196.5,287.5C 191.229,289.968 185.896,292.135 180.5,294C 185.528,290.823 190.528,287.656 195.5,284.5 Z"/></g>
<g><path style="opacity:0.008" fill="#fee5ed" d="M 241.5,287.5 C 242.833,288.167 242.833,288.167 241.5,287.5 Z"/></g>
<g><path style="opacity:1" fill="#da6c8b" d="M 212.5,286.5 C 209.725,289.605 206.392,291.938 202.5,293.5C 205.275,290.395 208.608,288.062 212.5,286.5 Z"/></g>
<g><path style="opacity:0.008" fill="#fee6ed" d="M 239.5,289.5 C 240.833,290.167 240.833,290.167 239.5,289.5 Z"/></g>
<g><path style="opacity:0.392" fill="#fee7f1" d="M 237.5,291.5 C 238.833,292.167 238.833,292.167 237.5,291.5 Z"/></g>
<g><path style="opacity:1" fill="#d36e8d" d="M 39.5,293.5 C 42.4326,294.771 45.0993,296.438 47.5,298.5C 48.1667,299.833 48.8333,301.167 49.5,302.5C 45.5644,300.234 42.2311,297.234 39.5,293.5 Z"/></g>
<g><path style="opacity:0.008" fill="#fdd4e0" d="M 231.5,296.5 C 231.5,298.5 230.5,299.5 228.5,299.5C 229.167,298.167 230.167,297.167 231.5,296.5 Z"/></g>
<g><path style="opacity:1" fill="#e06588" d="M 196.5,297.5 C 196.5,298.5 196.5,299.5 196.5,300.5C 194.42,301.044 192.42,301.878 190.5,303C 184.272,308.073 177.938,312.907 171.5,317.5C 174.567,314.118 177.901,310.952 181.5,308C 186.398,304.255 191.398,300.755 196.5,297.5 Z"/></g>
<g><path style="opacity:1" fill="#f54f7f" d="M 219.5,306.5 C 217.549,306.773 216.049,306.107 215,304.5C 214.667,306.167 214.333,307.833 214,309.5C 213.174,307.595 212.007,307.261 210.5,308.5C 210.709,309.086 211.043,309.586 211.5,310C 209.211,311.248 206.877,312.415 204.5,313.5C 203.571,314.689 203.238,316.022 203.5,317.5C 202.167,317.5 200.833,317.5 199.5,317.5C 199.567,318.959 199.234,320.292 198.5,321.5C 194.66,322.085 190.993,323.251 187.5,325C 187.957,325.414 188.291,325.914 188.5,326.5C 185.656,328.635 182.656,330.301 179.5,331.5C 177.956,331.703 176.622,332.37 175.5,333.5C 173.513,331.673 171.179,330.673 168.5,330.5C 168.657,331.873 168.49,333.207 168,334.5C 165.354,333.635 163.52,331.968 162.5,329.5C 165.524,325.482 168.524,321.482 171.5,317.5C 177.938,312.907 184.272,308.073 190.5,303C 192.42,301.878 194.42,301.044 196.5,300.5C 196.5,299.5 196.5,298.5 196.5,297.5C 196.833,296.5 197.5,295.833 198.5,295.5C 199.605,294.4 200.938,293.733 202.5,293.5C 206.392,291.938 209.725,289.605 212.5,286.5C 212.973,285.094 213.973,284.427 215.5,284.5C 219.563,282.697 223.563,280.697 227.5,278.5C 229.9,279.018 231.9,280.185 233.5,282C 231.893,281.981 230.226,281.815 228.5,281.5C 228.33,282.822 228.663,283.989 229.5,285C 226.523,288.47 225.19,292.303 225.5,296.5C 223.429,297.976 222.429,299.976 222.5,302.5C 221.5,302.5 220.5,302.5 219.5,302.5C 219.5,303.833 219.5,305.167 219.5,306.5 Z"/></g>
<g><path style="opacity:0.2" fill="#fcedef" d="M 224.5,303.5 C 225.833,304.167 225.833,304.167 224.5,303.5 Z"/></g>
<g><path style="opacity:1" fill="#e06d8f" d="M 49.5,302.5 C 52.1444,304.628 55.1444,306.128 58.5,307C 60.7655,308.758 62.4322,310.925 63.5,313.5C 60.112,312.381 57.2787,310.381 55,307.5C 54.6667,307.833 54.3333,308.167 54,308.5C 52.668,306.34 51.168,304.34 49.5,302.5 Z"/></g>
<g><path style="opacity:1" fill="#ec6a8f" d="M 219.5,306.5 C 212.784,311.881 205.784,316.881 198.5,321.5C 199.234,320.292 199.567,318.959 199.5,317.5C 200.833,317.5 202.167,317.5 203.5,317.5C 203.238,316.022 203.571,314.689 204.5,313.5C 206.877,312.415 209.211,311.248 211.5,310C 211.043,309.586 210.709,309.086 210.5,308.5C 212.007,307.261 213.174,307.595 214,309.5C 214.333,307.833 214.667,306.167 215,304.5C 216.049,306.107 217.549,306.773 219.5,306.5 Z"/></g>
<g><path style="opacity:0.008" fill="#fde9ed" d="M 61.5,315.5 C 62.8333,316.167 62.8333,316.167 61.5,315.5 Z"/></g>
<g><path style="opacity:1" fill="#ef4f7e" d="M 63.5,292.5 C 76.8333,302.167 90.1667,311.833 103.5,321.5C 104.538,324.293 104.538,326.793 103.5,329C 101.167,329.333 98.8333,329.667 96.5,330C 96.8333,330.333 97.1667,330.667 97.5,331C 96.6667,331.167 95.8333,331.333 95,331.5C 92.7298,330.14 90.2298,329.473 87.5,329.5C 85.5211,326.854 83.1878,324.521 80.5,322.5C 78.0891,321.912 76.0891,320.745 74.5,319C 73.2068,318.51 71.8734,318.343 70.5,318.5C 67.883,317.214 65.5496,315.547 63.5,313.5C 62.4322,310.925 60.7655,308.758 58.5,307C 55.1444,306.128 52.1444,304.628 49.5,302.5C 48.8333,301.167 48.1667,299.833 47.5,298.5C 47.4238,294.616 48.0905,290.95 49.5,287.5C 48.325,287.719 47.325,287.386 46.5,286.5C 48.1801,285.231 49.3468,283.564 50,281.5C 51.6449,283.388 53.4782,285.055 55.5,286.5C 56.6446,287.776 56.6446,289.109 55.5,290.5C 56.1667,291.167 56.8333,291.833 57.5,292.5C 59.4012,293.231 61.4012,293.231 63.5,292.5 Z"/></g>
<g><path style="opacity:0.008" fill="#f1eeec" d="M 208.5,318.5 C 209.833,319.167 209.833,319.167 208.5,318.5 Z"/></g>
<g><path style="opacity:1" fill="#df6c8c" d="M 70.5,318.5 C 71.8734,318.343 73.2068,318.51 74.5,319C 76.0891,320.745 78.0891,321.912 80.5,322.5C 83.1878,324.521 85.5211,326.854 87.5,329.5C 81.3143,326.578 75.6476,322.911 70.5,318.5 Z"/></g>
<g><path style="opacity:1" fill="#e26b8c" d="M 198.5,321.5 C 192.446,326.217 186.113,330.55 179.5,334.5C 179.5,333.5 179.5,332.5 179.5,331.5C 182.656,330.301 185.656,328.635 188.5,326.5C 188.291,325.914 187.957,325.414 187.5,325C 190.993,323.251 194.66,322.085 198.5,321.5 Z"/></g>
<g><path style="opacity:1" fill="#d36184" d="M 171.5,317.5 C 168.524,321.482 165.524,325.482 162.5,329.5C 159.482,330.855 158.149,333.188 158.5,336.5C 157.5,336.5 156.5,336.5 155.5,336.5C 159.336,328.99 164.669,322.656 171.5,317.5 Z"/></g>
<g><path style="opacity:1" fill="#e24d7a" d="M 103.5,321.5 C 107.833,324.833 112.167,328.167 116.5,331.5C 116.837,333.672 117.837,335.505 119.5,337C 118.968,339.02 117.635,339.853 115.5,339.5C 115.721,335.205 114.388,334.538 111.5,337.5C 108.687,336.781 105.854,336.114 103,335.5C 102.235,335.57 101.735,335.903 101.5,336.5C 99.2812,334.394 96.6145,333.394 93.5,333.5C 91.9826,333.489 90.8159,332.823 90,331.5C 88.692,332.151 87.8586,331.485 87.5,329.5C 90.2298,329.473 92.7298,330.14 95,331.5C 95.8333,331.333 96.6667,331.167 97.5,331C 97.1667,330.667 96.8333,330.333 96.5,330C 98.8333,329.667 101.167,329.333 103.5,329C 104.538,326.793 104.538,324.293 103.5,321.5 Z"/></g>
<g><path style="opacity:1" fill="#d3698a" d="M 93.5,333.5 C 96.6145,333.394 99.2812,334.394 101.5,336.5C 102.865,338.86 104.865,340.527 107.5,341.5C 108.167,342.5 108.833,343.5 109.5,344.5C 107.629,344.141 106.129,343.141 105,341.5C 104.667,341.833 104.333,342.167 104,342.5C 103.535,341.069 102.701,339.903 101.5,339C 98.3793,337.694 95.7126,335.86 93.5,333.5 Z"/></g>
<g><path style="opacity:1" fill="#d84574" d="M 162.5,329.5 C 163.52,331.968 165.354,333.635 168,334.5C 168.49,333.207 168.657,331.873 168.5,330.5C 171.179,330.673 173.513,331.673 175.5,333.5C 176.622,332.37 177.956,331.703 179.5,331.5C 179.5,332.5 179.5,333.5 179.5,334.5C 176.143,334.23 173.809,334.896 172.5,336.5C 172.5,337.5 172.5,338.5 172.5,339.5C 168.054,339.074 165.72,341.074 165.5,345.5C 165.5,345.833 165.5,346.167 165.5,346.5C 165.167,346.5 164.833,346.5 164.5,346.5C 163.127,346.343 161.793,346.51 160.5,347C 157.678,348.574 154.844,350.074 152,351.5C 151.125,350.127 150.625,348.627 150.5,347C 153.104,343.958 154.771,340.458 155.5,336.5C 156.5,336.5 157.5,336.5 158.5,336.5C 158.149,333.188 159.482,330.855 162.5,329.5 Z"/></g>
<g><path style="opacity:1" fill="#d24474" d="M 116.5,331.5 C 120.898,334.895 124.564,338.895 127.5,343.5C 128.038,345.117 128.371,346.784 128.5,348.5C 126.549,348.227 125.049,348.893 124,350.5C 122.473,348.779 121.473,346.779 121,344.5C 114.809,348.297 111.476,346.63 111,339.5C 110.184,340.823 109.017,341.489 107.5,341.5C 104.865,340.527 102.865,338.86 101.5,336.5C 101.735,335.903 102.235,335.57 103,335.5C 105.854,336.114 108.687,336.781 111.5,337.5C 114.388,334.538 115.721,335.205 115.5,339.5C 117.635,339.853 118.968,339.02 119.5,337C 117.837,335.505 116.837,333.672 116.5,331.5 Z"/></g>
<g><path style="opacity:1" fill="#ce6182" d="M 179.5,334.5 C 176.5,337.167 173.5,339.833 170.5,342.5C 169.5,343.167 168.5,343.833 167.5,344.5C 166.833,344.833 166.167,345.167 165.5,345.5C 165.72,341.074 168.054,339.074 172.5,339.5C 172.5,338.5 172.5,337.5 172.5,336.5C 173.809,334.896 176.143,334.23 179.5,334.5 Z"/></g>
<g><path style="opacity:0.008" fill="#fee8ed" d="M 170.5,342.5 C 171.833,343.167 171.833,343.167 170.5,342.5 Z"/></g>
<g><path style="opacity:0.392" fill="#ecf2ed" d="M 172.5,342.5 C 173.833,343.167 173.833,343.167 172.5,342.5 Z"/></g>
<g><path style="opacity:0.008" fill="#fbd1e0" d="M 167.5,344.5 C 167.631,345.239 167.464,345.906 167,346.5C 166.31,347.738 165.81,347.738 165.5,346.5C 165.5,346.167 165.5,345.833 165.5,345.5C 166.167,345.167 166.833,344.833 167.5,344.5 Z"/></g>
<g><path style="opacity:0.008" fill="#fee5ed" d="M 163.5,348.5 C 164.833,349.167 164.833,349.167 163.5,348.5 Z"/></g>
<g><path style="opacity:1" fill="#bd3b6d" d="M 127.5,343.5 C 128.5,343.833 129.167,344.5 129.5,345.5C 130.017,348.797 131.017,351.964 132.5,355C 132.167,355.833 131.833,356.667 131.5,357.5C 128.025,356.22 124.692,354.053 121.5,351C 118.706,350.018 116.039,348.851 113.5,347.5C 111.596,347.262 110.262,346.262 109.5,344.5C 108.833,343.5 108.167,342.5 107.5,341.5C 109.017,341.489 110.184,340.823 111,339.5C 111.476,346.63 114.809,348.297 121,344.5C 121.473,346.779 122.473,348.779 124,350.5C 125.049,348.893 126.549,348.227 128.5,348.5C 128.371,346.784 128.038,345.117 127.5,343.5 Z"/></g>
<g><path style="opacity:1" fill="#b43d6c" d="M 155.5,336.5 C 154.771,340.458 153.104,343.958 150.5,347C 150.625,348.627 151.125,350.127 152,351.5C 154.844,350.074 157.678,348.574 160.5,347C 161.793,346.51 163.127,346.343 164.5,346.5C 164.167,347.167 163.833,347.833 163.5,348.5C 161.5,350.167 159.5,351.833 157.5,353.5C 155.883,354.038 154.216,354.371 152.5,354.5C 152.617,356.484 151.95,358.15 150.5,359.5C 149.749,358.624 149.249,357.624 149,356.5C 148.503,359.146 148.336,361.813 148.5,364.5C 147.127,364.343 145.793,364.51 144.5,365C 145.865,368.362 145.032,371.195 142,373.5C 141.004,369.793 141.67,366.459 144,363.5C 144.61,360.173 145.11,356.839 145.5,353.5C 147.558,347.046 150.891,341.379 155.5,336.5 Z"/></g>
<g><path style="opacity:1" fill="#ab406c" d="M 129.5,345.5 C 132.258,348.678 134.258,352.345 135.5,356.5C 134.717,358.343 134.05,360.343 133.5,362.5C 131.54,363.519 129.54,363.519 127.5,362.5C 122.861,357.526 118.195,352.526 113.5,347.5C 116.039,348.851 118.706,350.018 121.5,351C 124.692,354.053 128.025,356.22 131.5,357.5C 131.833,356.667 132.167,355.833 132.5,355C 131.017,351.964 130.017,348.797 129.5,345.5 Z"/></g>
<g><path style="opacity:1" fill="#a34d72" d="M 145.5,353.5 C 145.11,356.839 144.61,360.173 144,363.5C 141.67,366.459 141.004,369.793 142,373.5C 145.032,371.195 145.865,368.362 144.5,365C 145.793,364.51 147.127,364.343 148.5,364.5C 148.336,361.813 148.503,359.146 149,356.5C 149.249,357.624 149.749,358.624 150.5,359.5C 151.95,358.15 152.617,356.484 152.5,354.5C 154.216,354.371 155.883,354.038 157.5,353.5C 151.275,361.067 146.275,369.401 142.5,378.5C 141.504,378.414 140.671,378.748 140,379.5C 139.506,377.866 139.34,376.199 139.5,374.5C 140.103,367 142.103,360 145.5,353.5 Z"/></g>
<g><path style="opacity:1" fill="#8e3a63" d="M 135.5,356.5 C 137.525,362.297 138.525,368.297 138.5,374.5C 137.292,375.234 135.959,375.567 134.5,375.5C 132.409,370.98 130.075,366.647 127.5,362.5C 129.54,363.519 131.54,363.519 133.5,362.5C 134.05,360.343 134.717,358.343 135.5,356.5 Z"/></g>
<g><path style="opacity:1" fill="#8e5a73" d="M 138.5,374.5 C 138.833,374.5 139.167,374.5 139.5,374.5C 139.34,376.199 139.506,377.866 140,379.5C 140.671,378.748 141.504,378.414 142.5,378.5C 141.343,382.793 140.343,387.127 139.5,391.5C 139.167,391.5 138.833,391.5 138.5,391.5C 137.78,386.008 136.447,380.675 134.5,375.5C 135.959,375.567 137.292,375.234 138.5,374.5 Z"/></g>
</svg>
